<svg id="Layer_1" data-name="Layer 1" xmlns="http://www.w3.org/2000/svg" viewBox="0 0 152.74 2166.08"><defs><style>.cls-1{fill:none;stroke-miterlimit:10;stroke-width:0.5px;}.cls-1,.cls-10{stroke:#010101;}.cls-10,.cls-2{fill:#010101;}.cls-3{font-size:12px;}.cls-3,.cls-6{fill:#231f20;font-family:Autopia-Italic, Autopia;font-style:italic;}.cls-4{letter-spacing:-0.05em;}.cls-5{letter-spacing:-0.06em;}.cls-6{font-size:11.19px;}.cls-7{letter-spacing:-0.06em;}.cls-8{letter-spacing:-0.01em;}.cls-9{letter-spacing:0.01em;}.cls-10{stroke-linecap:round;stroke-linejoin:round;}</style></defs><title>Dictionary_transparent</title><rect class="cls-1" y="2051.97" width="152.74" height="114"/><rect class="cls-1" y="-0.04" width="152.74" height="114"/><rect class="cls-1" y="113.96" width="152.74" height="114"/><rect class="cls-1" y="227.96" width="152.74" height="114"/><rect class="cls-1" y="341.96" width="152.74" height="114"/><rect class="cls-1" y="455.96" width="152.74" height="114"/><rect class="cls-1" y="569.96" width="152.74" height="114"/><rect class="cls-1" y="683.96" width="152.74" height="114"/><rect class="cls-1" y="797.96" width="152.74" height="114"/><rect class="cls-1" y="911.96" width="152.74" height="114"/><rect class="cls-1" y="1025.96" width="152.74" height="114"/><rect class="cls-1" y="1139.96" width="152.74" height="114"/><rect class="cls-1" y="1253.97" width="152.74" height="114"/><rect class="cls-1" y="1367.97" width="152.74" height="114"/><rect class="cls-1" y="1481.97" width="152.74" height="114"/><rect class="cls-1" y="1595.97" width="152.74" height="114"/><rect class="cls-1" y="1709.97" width="152.74" height="114"/><rect class="cls-1" y="1823.97" width="152.74" height="114"/><rect class="cls-1" y="1937.97" width="152.74" height="114"/><rect class="cls-1" y="2051.97" width="152.74" height="114"/><rect class="cls-1" y="-0.04" width="152.74" height="114"/><rect class="cls-1" y="113.96" width="152.74" height="114"/><rect class="cls-1" y="227.96" width="152.74" height="114"/><rect class="cls-1" y="341.96" width="152.74" height="114"/><rect class="cls-1" y="455.96" width="152.74" height="114"/><rect class="cls-1" y="569.96" width="152.74" height="114"/><rect class="cls-1" y="683.96" width="152.74" height="114"/><rect class="cls-1" y="797.96" width="152.74" height="114"/><rect class="cls-1" y="911.96" width="152.74" height="114"/><rect class="cls-1" y="1025.96" width="152.74" height="114"/><rect class="cls-1" y="1139.96" width="152.74" height="114"/><rect class="cls-1" y="1253.97" width="152.74" height="114"/><rect class="cls-1" y="1367.97" width="152.74" height="114"/><rect class="cls-1" y="1481.97" width="152.74" height="114"/><rect class="cls-1" y="1595.97" width="152.74" height="114"/><rect class="cls-1" y="1709.97" width="152.74" height="114"/><rect class="cls-1" y="1823.97" width="152.74" height="114"/><rect class="cls-1" y="1937.97" width="152.74" height="114"/><rect class="cls-1" y="2051.97" width="152.74" height="114"/><rect class="cls-1" y="569.96" width="152.74" height="114"/><rect class="cls-1" y="683.96" width="152.74" height="114"/><rect class="cls-1" y="797.96" width="152.74" height="114"/><rect class="cls-1" y="911.96" width="152.74" height="114"/><rect class="cls-1" y="1025.96" width="152.74" height="114"/><rect class="cls-1" y="1139.96" width="152.74" height="114"/><rect class="cls-1" y="1253.97" width="152.74" height="114"/><rect class="cls-1" y="1367.97" width="152.74" height="114"/><rect class="cls-1" y="1481.97" width="152.74" height="114"/><rect class="cls-1" y="1595.97" width="152.74" height="114"/><rect class="cls-1" y="1709.97" width="152.74" height="114"/><rect class="cls-1" y="1823.97" width="152.74" height="114"/><rect class="cls-1" y="1937.97" width="152.74" height="114"/><rect class="cls-1" y="2051.97" width="152.74" height="114"/><rect class="cls-1" y="569.96" width="152.74" height="114"/><rect class="cls-1" y="683.96" width="152.74" height="114"/><rect class="cls-1" y="797.96" width="152.74" height="114"/><rect class="cls-1" y="911.96" width="152.74" height="114"/><rect class="cls-1" y="1025.96" width="152.74" height="114"/><rect class="cls-1" y="1139.96" width="152.74" height="114"/><rect class="cls-1" y="1253.97" width="152.74" height="114"/><rect class="cls-1" y="1367.97" width="152.74" height="114"/><rect class="cls-1" y="1481.97" width="152.74" height="114"/><rect class="cls-1" y="1595.97" width="152.74" height="114"/><rect class="cls-1" y="1709.97" width="152.74" height="114"/><rect class="cls-1" y="1823.97" width="152.74" height="114"/><rect class="cls-1" y="1937.97" width="152.74" height="114"/><rect class="cls-1" x="0.27" y="570" width="152.26" height="570.08"/><path class="cls-2" d="M94,48.29c-.15-.43,0-1.2-.35-1.4A12.31,12.31,0,0,0,81.56,57.73c-.08,5.4,5.28,11.14,10.42,10.88-12.38-1.06-10.66-20,1.82-18.87.07-.49.16-1,.22-1.45"/><path class="cls-2" d="M94.58,32.25c-.15-.43,0-1.2-.35-1.41A12.31,12.31,0,0,0,82.12,41.69c-.07,5.4,5.28,11.13,10.42,10.88-12.38-1.06-10.66-20,1.83-18.88.06-.48.16-1,.21-1.44"/><path class="cls-2" d="M71.35,73.45c-.13-.38,0-1-.3-1.23a10.71,10.71,0,0,0-10.54,9.44c-.06,4.7,4.59,9.69,9.07,9.47C58.81,90.2,60.3,73.77,71.16,74.7c.06-.42.15-.83.19-1.25"/><path class="cls-2" d="M61.73,37.57c-.15-.44,0-1.21-.35-1.42-6-.07-11.75,4.88-12.26,11-.07,5.46,5.34,11.26,10.54,11C47.14,57.05,48.88,37.94,61.51,39c.07-.49.17-1,.22-1.46"/><text class="cls-3" transform="translate(7.56 16.2)">F<tspan class="cls-4" x="6.85" y="0">L</tspan><tspan x="13.05" y="0">O</tspan></text><path class="cls-2" d="M105.57,272.44c.44,0,1.17.66,1.35.05,1.66-6.43,10.6-6.39,14.15-1.65,4,5.15-.63,13.89-6.41,13.77,8,.22,11.88-11.5,5.83-16.54-5-4.28-14-3.6-15.9,3.52.3.28.64.59,1,.85"/><path class="cls-2" d="M114,283.73c.09.39-.17,1.09.15,1.27,8.92.13,8.77,13.91,1.43,16.71,8.92-2.49,9.3-19.08-1.18-19.21-.26.22-.26.84-.4,1.23"/><path class="cls-2" d="M90.65,259.75c.35.23.66.95,1,.86,7.71-4.68,17.08,4,13.16,11.87,5.52-9.07-6.14-19.57-14.78-14-.11.36.42.86.58,1.27"/><path class="cls-2" d="M93.86,309.12c-.38.1-.94,0-1.21.24-1.53,9.88,12.59,15,17.8,5.9-5.34,7.62-17,2.85-15.34-5.9a4.14,4.14,0,0,0-1.25-.24"/><text class="cls-3" transform="translate(7.56 244.95)"><tspan class="cls-5">T</tspan><tspan x="6.6" y="0">A</tspan></text><g id="Layer_18" data-name="Layer 18"><path class="cls-2" d="M78.15,720a1.18,1.18,0,1,1,0-2.34,4.49,4.49,0,0,1,1,0c3.38.42,6.52,2.34,7.59,5.38.36,1.34.41,1.88.7,3a8.56,8.56,0,0,0-9.26-6"/><path class="cls-2" d="M96.46,717.63a1.17,1.17,0,1,1,.08,2.33l-.69.07-1.32.19a11.43,11.43,0,0,0-1.75.3,4.89,4.89,0,0,0-2.33,1.28,14.42,14.42,0,0,0-3,4.3c.11-.37.14-.88.29-1.25.59-3.9,4.5-7.09,8.77-7.22"/><path class="cls-2" d="M98,718.12c.91,1.33-1.41,2.62-2.05,1.13l-.37-.56c-.4-.64-.83-1.25-1.19-1.92-2.08-4.66-4.69-9-7-13.57,3.53,5,7.32,9.78,10.65,14.92"/><path class="cls-2" d="M78.87,719.5c-1,1.36-3.34-.29-2.11-1.47l.4-.51.67-.84c1.32-1.62,3.08-4.25,4.38-5.89a75.47,75.47,0,0,0,5.31-7.59c-2.59,5.43-5,11.34-8.65,16.3"/></g><g id="Layer_18_copy_copy" data-name="Layer 18 copy copy"><path class="cls-2" d="M118.82,755.39c.76-1.55,3.26,0,2.1,1.27a3.3,3.3,0,0,1-.52.76,9.38,9.38,0,0,1-9,3c-1.4-.44-1.91-.7-3.06-1.07,4.16,1.08,8.37-.16,10.45-4"/><path class="cls-2" d="M110.92,771.14c-.73,1.46-3.16.09-2.14-1.21l.31-.57c.19-.38.36-.76.55-1.14a11,11,0,0,0,.69-1.53,4.3,4.3,0,0,0,.12-2.53,13.54,13.54,0,0,0-2.17-4.59c.27.29.57.57.83.88a8.21,8.21,0,0,1,1.81,10.69"/><path class="cls-2" d="M109.62,771.92a1.17,1.17,0,1,1,.19-2.32h.71c.8,0,1.59,0,2.39,0,5.34.78,10.81.36,16.18.82-6.46.27-13,1.46-19.47,1.47"/><path class="cls-2" d="M118.92,756.06c-.68-1.44,2-2.28,2.36-.75l.24.56c.13.31.26.62.4.93.75,1.83,2.16,4.5,2.93,6.32,1.25,2.94,3,5,4.55,7.82-3.44-4.77-8-9.63-10.48-14.88"/></g><g id="Layer_18_copy" data-name="Layer 18 copy"><path class="cls-2" d="M64.66,770.37c1.11,1.36-1.54,2.72-2.23,1.13a3.61,3.61,0,0,1-.48-.8,8.11,8.11,0,0,1,1.44-8.91c1.1-.95,1.6-1.25,2.51-2-3,2.94-3.88,7-1.24,10.61"/><path class="cls-2" d="M53.39,756.22c-1-1.3,1.44-2.67,2.18-1.2l.4.53c.27.35.56.67.83,1a10.72,10.72,0,0,0,1.13,1.31,5,5,0,0,0,2.36,1.31,16,16,0,0,0,5.43.4c-.41.09-.82.21-1.24.27a9.69,9.69,0,0,1-11.09-3.63"/><path class="cls-2" d="M53.26,754.77c.78-1.45,3.19,0,2.14,1.27-.12.19-.23.39-.35.59-.39.66-.74,1.34-1.18,2-3.3,4.08-6.07,8.49-9.1,12.73,2.85-5.5,5.4-11.16,8.49-16.56"/><path class="cls-2" d="M64,770.13c1.71.12,1.24,2.71-.42,2.32l-.65-.07-1.08-.12c-2.1-.25-5.34-.36-7.45-.59a85.09,85.09,0,0,0-9.45-.5c6.21-.58,12.82-1.47,19-1"/></g><text class="cls-6" transform="translate(7.56 705.19) scale(1.07 1)">TION</text><path class="cls-2" d="M87.33,1455.18c-.12-.35,0-1-.29-1.15a10.12,10.12,0,0,0-10,8.92c-.06,4.44,4.34,9.16,8.57,9-10.18-.88-8.77-16.41,1.5-15.53.06-.39.14-.79.18-1.19"/><path class="cls-2" d="M101.59,1443.79c-.12-.35,0-1-.29-1.16a10.14,10.14,0,0,0-10,8.92c-.06,4.45,4.34,9.16,8.57,9-10.18-.87-8.77-16.41,1.5-15.52,0-.4.13-.79.18-1.19"/><path class="cls-2" d="M99.32,1400.48c-.14-.41,0-1.15-.34-1.35a11.78,11.78,0,0,0-11.58,10.38c-.07,5.16,5,10.64,10,10.4-11.84-1-10.19-19.08,1.74-18.05.07-.46.16-.92.21-1.38"/><path class="cls-2" d="M112.21,1427.78c-.13-.37,0-1-.3-1.2a10.49,10.49,0,0,0-10.32,9.24c-.06,4.61,4.5,9.49,8.88,9.28-10.55-.91-9.08-17,1.55-16.09.06-.41.14-.82.19-1.23"/><path class="cls-2" d="M115.6,1407.7c-.13-.39,0-1.08-.32-1.27a11.16,11.16,0,0,0-11,9.85c-.07,4.9,4.79,10.1,9.46,9.87-11.24-1-9.68-18.11,1.65-17.13.06-.44.15-.88.2-1.32"/><path class="cls-2" d="M64.45,1427c-.13-.39,0-1.07-.31-1.26a11,11,0,0,0-10.81,9.68c-.06,4.82,4.71,9.93,9.3,9.71-11-.95-9.51-17.81,1.63-16.85.06-.43.14-.85.19-1.28"/><path class="cls-2" d="M63.39,1408c-.14-.39,0-1.1-.32-1.28a11.22,11.22,0,0,0-11,9.89c-.07,4.93,4.82,10.16,9.51,9.93-11.3-1-9.73-18.21,1.66-17.22.06-.44.15-.88.2-1.32"/><path class="cls-2" d="M73.07,1443.79c-.12-.35,0-1-.29-1.16a10.14,10.14,0,0,0-10,8.92c-.06,4.45,4.34,9.16,8.57,9-10.18-.87-8.77-16.41,1.5-15.52.06-.4.14-.79.18-1.19"/><path class="cls-2" d="M55.21,1443c-.13-.38,0-1.08-.31-1.27A11.13,11.13,0,0,0,44,1451.57c-.07,4.88,4.77,10.06,9.42,9.83-11.19-1-9.64-18,1.65-17.06.06-.44.14-.87.19-1.31"/><path class="cls-2" d="M79.7,1400.82c-.13-.39,0-1.08-.31-1.27a11,11,0,0,0-10.86,9.73c-.07,4.85,4.73,10,9.34,9.76-11.1-1-9.56-17.89,1.64-16.93.06-.43.15-.86.19-1.29"/><path class="cls-2" d="M89.25,1384.91c-.14-.39,0-1.09-.32-1.28a11.21,11.21,0,0,0-11,9.87c-.07,4.92,4.8,10.13,9.48,9.9-11.26-1-9.7-18.16,1.66-17.18.06-.44.15-.87.2-1.31"/><path class="cls-2" d="M121.88,1443.85c-.13-.37,0-1-.3-1.22a10.64,10.64,0,0,0-10.46,9.37c-.07,4.67,4.56,9.62,9,9.4-10.69-.92-9.21-17.23,1.57-16.31.06-.41.14-.83.19-1.24"/><text class="cls-3" transform="translate(7.56 1386.79)"><tspan class="cls-7">A</tspan><tspan x="6.77" y="0">U</tspan><tspan class="cls-8" x="16.29" y="0">T</tspan><tspan x="23.42" y="0">O</tspan></text><path class="cls-2" d="M99.32,618.41c-.15-.39-.1-1-.39-1.26-8.11.43-13.57,13-6.28,18.12-5.93-5-.53-15.23,6.63-15.51a8.52,8.52,0,0,0,0-1.35"/><path class="cls-2" d="M93.13,635.78c.1-.4.73-.91.49-1.23-7.54-4.28-16.05,4.65-13.86,12.29-1.05-6.54,6-13.59,12.51-10.07.28-.33.58-.65.86-1"/><path class="cls-2" d="M79.84,646.91c.3-.28,1.18-.32,1.11-.75-5.91-8.66-21.06-2-18.53,8.53-1.28-8.75,10.41-14.3,16.09-7.53.44-.08.89-.15,1.33-.25"/><path class="cls-2" d="M93.67,651.73c-.38.1-.94,0-1.21.24-1.53,9.87,12.58,15,17.79,5.9-5.33,7.61-17,2.85-15.33-5.9a4.08,4.08,0,0,0-1.25-.24"/><text class="cls-3" transform="translate(7.56 586.79)">MA</text><path class="cls-2" d="M122.34,1190.55l-1.2-.51c-7.38,9.41-3.08,26.37,10.11,26.9-.6-.11-.16-1.11-.16-1.06-6.11,3-5,13.15,1.82,14.69-.2,0,.07-.7,0-.62-7-1.16-15.08,4.85-15,12.15,0,0,0-.2,0-.25.34-7.6,8.89-12.19,15.59-11.43-5.56-1.78-7.72-10.67-1.52-13.4a.82.82,0,0,0,.35-.81c-.58-1-2.05-.83-3-1.42-10.64-1.94-11.31-15.37-6.57-22.91.1-.4-.3-.91-.45-1.33"/><path class="cls-2" d="M86.62,1191.77a6.41,6.41,0,0,0-1.2.18c.29,3.87.94,7.71,1.49,11.24,0-3.8,1.17-7.55,1-11.35a6.23,6.23,0,0,0-1.24-.07"/><path class="cls-2" d="M68.43,1192.83c-.05.4-.34.92-.22,1.23,8.17,2.23,12.44,12.78,6.94,19.64,6.48-6.58,3-19.24-6-21.93-.35,0-.49.74-.74,1.06"/><text class="cls-3" transform="translate(7.56 1155.87)">EMBO</text><path class="cls-2" d="M87.76,1493.93c-2.67-.15.07,3.23,0,4.69.1-1.51,2.78-4.87,0-4.69"/><path class="cls-2" d="M52.77,1522.16c-2.66-.15.08,3.23,0,4.69.09-1.51,2.77-4.87,0-4.69"/><path class="cls-2" d="M122.19,1522.16c-2.66-.15.08,3.23,0,4.69.1-1.51,2.78-4.87,0-4.69"/><path class="cls-2" d="M129.66,1566.39c-2.72-.06.15,3.55.1,5.08-.06-1.63,2.64-5.18-.1-5.08"/><path class="cls-2" d="M45.59,1566.39c-2.71-.06.15,3.55.11,5.08-.07-1.63,2.63-5.18-.11-5.08"/><path class="cls-2" d="M87.28,1581.9c-2.72-.06.15,3.55.11,5.08-.07-1.63,2.63-5.18-.11-5.08"/><path class="cls-2" d="M87.59,1494.66c-2.54-.07,0,2.78.06,4,.18-1.33,2.77-4.65-.06-4"/><path class="cls-2" d="M116.6,1527c-1.77-1.82-1.93,2-2.74,2.92,1-.84,5.23-1.42,2.74-2.92"/><path class="cls-2" d="M58.82,1527c-2,1.51,1.72,2.19,2.51,3.12-.68-1.15-.69-5.37-2.51-3.12"/><path class="cls-2" d="M129.48,1566.52c-2.7-.06.15,3.54.11,5.06-.06-1.63,2.62-5.16-.11-5.06"/><path class="cls-2" d="M45.78,1566.52c-2.7-.06.15,3.54.11,5.06-.07-1.63,2.62-5.16-.11-5.06"/><path class="cls-2" d="M87.73,1523.38c2.65.14-.08-3.22,0-4.67-.1,1.5-2.77,4.85,0,4.67"/><path class="cls-2" d="M100.26,1583.93c2.65.14-.08-3.22,0-4.67-.1,1.5-2.77,4.85,0,4.67"/><path class="cls-2" d="M75.64,1583.93c2.65.14-.07-3.22,0-4.67-.1,1.5-2.77,4.85,0,4.67"/><text class="cls-3" transform="translate(7.56 1497.98)">DI</text><path class="cls-2" d="M69.7,131.35a1.36,1.36,0,0,1,2.48-1c2.47,8.17-2.28,16.33-6.9,22.75a7.4,7.4,0,0,1,.57-1.25c3.76-6.05,5.73-13.45,3.85-20.46"/><path class="cls-2" d="M109.59,200.65l1.21.27c2.29-5.56-.26-13.61-6.88-14.45-8-1.4-15.21,7.42-9.78,14.45-4.6-6.5,2-14.94,9.65-12.9,5.16,1.18,6.14,7.55,4.77,11.88.36.23.68.52,1,.75"/><path class="cls-2" d="M113.48,189.31a7.24,7.24,0,0,0-1.16-.47c-10,10.29,9.38,24.18,15.73,11.75-6.24,10.56-22.5-1.35-13.75-10.23.19-.4-.59-.71-.82-1.05"/><text class="cls-3" transform="translate(7.56 130.59)">ED</text><path class="cls-2" d="M87.19,1339c-3-.07.16,3.93.11,5.62-.07-1.81,2.92-5.73-.11-5.62"/><path class="cls-2" d="M87.23,1266.9c-2.94-.17.09,3.57,0,5.18.11-1.67,3.07-5.38,0-5.18"/><path class="cls-2" d="M66.15,1328.19c-2.94-.17.09,3.57,0,5.18.11-1.67,3.07-5.38,0-5.18"/><path class="cls-2" d="M54.79,1328c-2.94-.16.09,3.57,0,5.19.11-1.67,3.07-5.39,0-5.19"/><path class="cls-2" d="M60.54,1337.3c-2.94-.16.09,3.57,0,5.19.11-1.67,3.07-5.39,0-5.19"/><path class="cls-2" d="M120,1328.52c-2.95-.16.08,3.57,0,5.19.11-1.67,3.07-5.39,0-5.19"/><path class="cls-2" d="M108.63,1328.37c-2.94-.17.09,3.57,0,5.18.11-1.67,3.07-5.38,0-5.18"/><path class="cls-2" d="M114.38,1337.64c-2.94-.17.09,3.57,0,5.18.11-1.67,3.07-5.38,0-5.18"/><path class="cls-2" d="M78.68,1344c-3-.07.16,3.93.11,5.62-.07-1.81,2.92-5.73-.11-5.62"/><path class="cls-2" d="M95.12,1342.49c-3-.07.16,3.93.11,5.62-.07-1.81,2.92-5.73-.11-5.62"/><text class="cls-3" transform="translate(7.56 1269.19)">VI</text><path class="cls-2" d="M81.08,1967.71c-2.78-.15.08,3.37,0,4.9.11-1.58,2.9-5.08,0-4.9"/><path class="cls-2" d="M92.81,1967.93c-2.77-.15.08,3.37,0,4.89.1-1.57,2.89-5.08,0-4.89"/><path class="cls-2" d="M105.4,1981.07c-2.77-.15.08,3.37,0,4.89.1-1.57,2.89-5.07,0-4.89"/><path class="cls-2" d="M68.64,1981.07c-2.77-.15.08,3.37,0,4.89.1-1.57,2.89-5.07,0-4.89"/><path class="cls-2" d="M60.23,1993.44c-2.83-.06.16,3.71.11,5.3-.06-1.7,2.75-5.4-.11-5.3"/><path class="cls-2" d="M112.26,1993.44c-2.83-.06.16,3.71.11,5.3-.06-1.7,2.75-5.4-.11-5.3"/><text class="cls-3" transform="translate(7.56 1955.71)">SI</text><path class="cls-2" d="M86.54,835.83l-1,.62c1.76,11.23-11.43,10-18.3,13.16-8.55,4.76-10.7,16.82-5.19,24.67-4.89-7.5-2.68-19.65,6.12-23.66,4.64-2.46,10.17-1.07,14.85-3.2,3.88-2.27,5.65-7.13,4.85-11.45a3.85,3.85,0,0,0-1.3-.14"/><path class="cls-2" d="M62.34,874.43c.28-.27,1-.42,1-.78-6.36-11.4-24.13-1.25-17.37,9.92-5-10.05,9.22-18.47,15.14-8.93.3.22.87-.17,1.27-.21"/><path class="cls-2" d="M110.18,883.85c.39.09.79.19,1.18.26,2.24-5.44-.25-13.31-6.73-14.13-7.87-1.38-14.88,7.25-9.57,14.13-4.49-6.35,2-14.61,9.44-12.61,5.06,1.15,6,7.38,4.67,11.61.35.23.66.51,1,.74"/><path class="cls-2" d="M114,872.76a5.91,5.91,0,0,0-1.13-.47C103,882.36,122,896,128.23,883.8c-6.1,10.32-22-1.33-13.44-10,.18-.39-.58-.69-.81-1"/><path class="cls-2" d="M87.12,847.57a7.3,7.3,0,0,0-1.28.19c.31,4.14,1,8.26,1.6,12,0-4.07,1.25-8.08,1-12.14a6.48,6.48,0,0,0-1.34-.08"/><text class="cls-3" transform="translate(7.56 813.73)">BLE</text><path class="cls-2" d="M93.59,1871.64a9.12,9.12,0,0,1-4.66-8.22,9.31,9.31,0,0,1,4-6.82c1.44-.85-.46-3.24-1.79-2.22a11.93,11.93,0,0,0-4.18,5.21c-2.51,5,1.24,12.54,7.14,13.64a13,13,0,0,0,8.38-1.13,15.11,15.11,0,0,1,2.57,4.57c.66,2.06-.22,7.19-3.79,9.67,1.07-.14,2.43-1.25,3.84-2.8s1.77-4.45,1.84-5.29a16.12,16.12,0,0,0,1.53,1.56,2.3,2.3,0,0,0,2.31.72,12.69,12.69,0,0,1,7,2.08c5.73,4.86,2.09,11.48.81,13-.69.83-.13,1,1.19-.23,4.76-4.1,3.78-11.25-.3-14.86-1.94-1.7-5.5-2.63-8.58-2.69a8.71,8.71,0,0,1-3.7-3c-3.53-4.68.46-11.41,5.19-12.7,4.74-1.12,8.18,1.85,9.27,2.89a9.6,9.6,0,0,0-10.46-3.57,11.44,11.44,0,0,0-7.41,7.82,6.71,6.71,0,0,0-.07.76c-1-.39-2.11.32-1.67,1.42C102.06,1871.49,97.27,1873.17,93.59,1871.64Z"/><path class="cls-2" d="M63.27,1904.16a6.36,6.36,0,0,1,2-3.39,13.26,13.26,0,0,1,3.88-2.11c1.62-.49,1.66-3.11-.8-2.72a7.39,7.39,0,0,0-6,5.47,9.49,9.49,0,0,0-1.73-2.37,8.66,8.66,0,0,0-3.93-2.36,1.1,1.1,0,0,0,.22-1.09c-1.57-5-2.89-7.84-1.31-12.95-2.1,5-2.84,8.43-1.08,13.66-3.81-.23-7.76,1.65-9.1,5.48a6.82,6.82,0,0,1,1-1.44c2.92-4.45,10.21-4.25,13.35-.14s1.43,10.13-2.1,13.28a1.33,1.33,0,0,0-.21.75,1.29,1.29,0,0,0,2,1A11.64,11.64,0,0,0,63.27,1904.16Z"/><text class="cls-3" transform="translate(7.56 1838.8)">EX</text><path class="cls-2" d="M68.78,2104.7a11.23,11.23,0,0,0-1.2-10.16c-1-1.69-3.41-.78-2.53,1,1.87,3.4,2.82,8.14.32,10.81-2.41,3-7.46,3.25-8.85,3.19C56.39,2109.49,65.83,2111.7,68.78,2104.7Z"/><path class="cls-2" d="M76.48,2080.7c-2.41,0,.13,3.15.09,4.5C76.51,2083.76,78.9,2080.62,76.48,2080.7Z"/><path class="cls-2" d="M84.42,2135.8c-.32,1.77,2.65,2,2.55.18-.26-7.28-.65-14.1-1.43-21.23C84.9,2121.54,84.41,2135.37,84.42,2135.8Z"/><text class="cls-3" transform="translate(7.56 2068.22)">IST</text><path class="cls-2" d="M91.54,1001.58a6.2,6.2,0,0,0,1.16-1.75c.18-.56.13-.87-.29-1.13,3.83-5.14,6.63-11.77,4.42-18.12a1.14,1.14,0,0,0-2,1c1.7,5.81,0,11.76-2.94,16.79a1.12,1.12,0,0,0-1.42.5,35.29,35.29,0,0,1-12.18,9.51A31.15,31.15,0,0,1,62,1010.2,31,31,0,0,0,91.54,1001.58Z"/><path class="cls-2" d="M46.48,995.43c-.46-.61-.79-.62-1.12-.48-3.73-7.22-3.08-15.53-.86-21.86a24.19,24.19,0,0,1,8.14-10.27c.88-.85.41-2.51-1.19-1.9-2.66,1.48-7.29,6.92-8.81,11.46a27,27,0,0,0,2.06,23,.91.91,0,0,0-.22,1.27c2.19,4.61,6.72,7.62,11.15,9.86A36.05,36.05,0,0,1,46.48,995.43Z"/><path class="cls-2" d="M76.24,984.38c1.48,8.48,6,13,7,13.41a26.35,26.35,0,0,1-5.33-14.89c-.65-8.57,3.31-16.81,3.41-16.95.75-1.48-.85-2.92-1.63-1.52C77.57,968.81,75.11,977.91,76.24,984.38Z"/><path class="cls-2" d="M133.94,980.66c-.8-9.1-5.51-16.73-10.21-19.74a1.23,1.23,0,0,0-1.1,2.19c2.11,1.52,8.55,7,9.78,18.12.85,12.42-4.86,17.59-5.42,18-4.46,4.06-12.19,2-13.55-3.91a7.89,7.89,0,0,1,1.16-6.24,18.72,18.72,0,0,1,1.86-2.28c1.47-1-.61-3.15-1.77-1.81a15.72,15.72,0,0,0-2,2.29,9.54,9.54,0,0,0,1.44,12.57,12.09,12.09,0,0,0,9,2.67,9.43,9.43,0,0,0,1.49-.43c-8.3,9.89-21.38,10.63-32.34,4.62a21.57,21.57,0,0,0,6.17,3.69c8.38,3.39,16.84,1.65,24.41-3.28a17.05,17.05,0,0,0,4.53-4.29c.4-1,.08-1.34-.47-1.59C126.91,1001.27,134.68,996.7,133.94,980.66Z"/><path class="cls-2" d="M60.26,960.51a69.26,69.26,0,0,1-.07-11c1-6.31,1.73-10.1,7.81-16.65A20.87,20.87,0,0,1,82.91,926c3-.25,12.65,1.46,11.37,10.46-.44,3.09-1.32,4.61-.73,4.1a9.38,9.38,0,0,0,2.16-10.86c-3.82-8.17-15.08-6.3-17.61-5.7-10.46,2.17-18.72,12.62-19.39,24.21C58.4,952.15,60.38,962.18,60.26,960.51Z"/><path class="cls-2" d="M115.31,948.26c-.3-5.7-.85-8.88-5-13-1.49-1.18-2.92.66-1.93,1.67C112,940.85,114.49,942.83,115.31,948.26Z"/><text class="cls-3" transform="translate(7.56 927.45)">CO</text><g id="Layer_17" data-name="Layer 17"><path class="cls-2" d="M88.46,1675.23c0,1.67-2.68,1.31-2.28-.31v-.73c.52-6.18.72-12.5,1.06-18.71.26,6.55,1.45,13.19,1.22,19.75"/><path class="cls-2" d="M88.66,1636c.06,1.76-2.77,1.32-2.29-.37,0-.3,0-.6,0-.9-.21-7.12.66-14.23.77-21.36.43,7.55,1.1,15.08,1.56,22.63"/></g><text class="cls-3" transform="translate(7.56 1613.19)">SA</text><g id="Layer_4" data-name="Layer 4"><path class="cls-2" d="M55.78,418.75c-1.63.82-2.47-2-.68-2.33.24-.12.75-.46,1-.6.44-.27.6-.31,1-.57s1.06-.6,1.59-.89c9.78-4.86,19.52-10.24,29.46-15.51-10.79,6.6-21.33,13.72-32.39,19.9"/><path class="cls-2" d="M119.67,416.89a1.2,1.2,0,0,1-.24,2.35,3.34,3.34,0,0,1-1.49-.5c-10.47-6.52-20.77-13.47-31.33-19.84,11.06,5.88,22.19,11.79,33.06,18"/></g><text class="cls-3" transform="translate(7.56 356.82)"><tspan class="cls-9">T</tspan><tspan x="7.42" y="0">Y</tspan></text><g id="Layer_7_copy" data-name="Layer 7 copy"><path class="cls-2" d="M114.13,1076.83l-1.2-.14c-4.4,13.44-19.2,25-33.51,19.67,14.16,6.15,31-4.74,35.7-18.76a4.91,4.91,0,0,0-1-.77"/></g><path class="cls-10" d="M97.12,1095.62c-.29-.3-.49-.91-.85-1-15.13,5.26-33.41-4.89-35.8-21.11,1.42,16.47,20.65,29.17,36.66,23.48.33-.26,0-.94,0-1.37"/><text class="cls-3" transform="translate(7.56 1043.22)">DE</text><g id="Layer_4-2" data-name="Layer 4"><path class="cls-2" d="M87.43,536.88a8.85,8.85,0,0,0-1.29.11c.18,3.68.94,7.54,1.37,11.16.25-3.73,1.32-7.43,1.24-11.16a8,8,0,0,0-1.32-.11"/><path class="cls-2" d="M122.7,491.67c1.83-.91,2.76,2.28.76,2.62-.27.14-.85.52-1.1.68-.49.29-.67.35-1.17.63s-1.19.68-1.79,1c-11,5.46-21.9,11.49-33.06,17.41,12.12-7.41,24-15.4,36.36-22.34"/><path class="cls-2" d="M51,493.76a1.35,1.35,0,0,1,.27-2.63,3.77,3.77,0,0,1,1.68.56C64.69,499,76.25,506.81,88.1,514c-12.41-6.6-24.91-13.23-37.11-20.19"/></g><path class="cls-2" d="M88.47,493.41c0,1.52-2.39,1.14-2-.31l0-.78c-.18-6.15.57-12.29.66-18.43.38,6.51.95,13,1.35,19.52"/><path class="cls-2" d="M97.74,475.74c.64-1.17,2.47.06,1.64,1.1l-.25.41c-.13.22-.27.44-.42.65a14.73,14.73,0,0,1-1.09,1.28c-.39.44-.87,1.18-1.26,1.62-1.12,1.31-1.91,2.5-3,3.83a87.21,87.21,0,0,1,4.38-8.89"/><path class="cls-2" d="M75.44,476.7a1,1,0,0,1,1.44-1.27c1,1,1.21,2.55,1.78,3.77.84,1.95,1.63,3.92,2.39,5.91-1.7-2.92-4-5.43-5.61-8.41"/><text class="cls-3" transform="translate(7.56 470.06)">SIGN</text><g id="Layer_7_copy-2" data-name="Layer 7 copy"><path class="cls-2" d="M58.46,1754.78c.17.45.34.91.52,1.36,16.83-2.89,37.52,6.41,39.9,24.68-1.42-18.58-22.54-30.42-40.16-27.54a5.8,5.8,0,0,0-.26,1.5"/></g><path class="cls-2" d="M77.17,1780.55c.45-.14,1.16,0,1.44-.32,2.73-17.86,22.48-30.76,39.92-24.59-17.18-7.26-40,5.23-42.73,24.19.08.47.94.49,1.37.72"/><text class="cls-3" transform="translate(7.56 1726.71)">FE</text></svg>