<svg id="Layer_1" data-name="Layer 1" xmlns="http://www.w3.org/2000/svg" viewBox="0 0 607.18 540.88"><defs><style>.cls-1{fill:#010101;stroke:#010101;stroke-linecap:round;stroke-linejoin:round;}</style></defs><title>1</title><g id="Layer_6" data-name="Layer 6"><path class="cls-1" d="M427.08,176.6c-.65-1.88,0-5.21-1.52-6.11-25.89-.31-50.44,21-52.6,47.1-.32,23.46,22.92,48.36,45.25,47.26-53.75-4.63-46.29-86.66,7.92-82,.29-2.09.71-4.17.95-6.26"/><path class="cls-1" d="M427.08,176.6c-.65-1.88,0-5.21-1.52-6.11-25.89-.31-50.44,21-52.6,47.1-.32,23.46,22.92,48.36,45.25,47.26-53.75-4.63-46.29-86.66,7.92-82,.29-2.09.71-4.17.95-6.26"/><path class="cls-1" d="M427.08,176.6c-.65-1.88,0-5.21-1.52-6.11-25.89-.31-50.44,21-52.6,47.1-.32,23.46,22.92,48.36,45.25,47.26-53.75-4.63-46.29-86.66,7.92-82,.29-2.09.71-4.17.95-6.26"/><path class="cls-1" d="M427.08,176.6c-.65-1.88,0-5.21-1.52-6.11-25.89-.31-50.44,21-52.6,47.1-.32,23.46,22.92,48.36,45.25,47.26-53.75-4.63-46.29-86.66,7.92-82,.29-2.09.71-4.17.95-6.26"/><path class="cls-1" d="M427.08,176.6c-.65-1.88,0-5.21-1.52-6.11-25.89-.31-50.44,21-52.6,47.1-.32,23.46,22.92,48.36,45.25,47.26-53.75-4.63-46.29-86.66,7.92-82,.29-2.09.71-4.17.95-6.26"/><path class="cls-1" d="M427.08,176.6c-.65-1.88,0-5.21-1.52-6.11-25.89-.31-50.44,21-52.6,47.1-.32,23.46,22.92,48.36,45.25,47.26-53.75-4.63-46.29-86.66,7.92-82,.29-2.09.71-4.17.95-6.26"/><path class="cls-1" d="M344.08,210.14c-.65-1.87,0-5.21-1.53-6.1-25.88-.31-50.43,21-52.59,47.1-.32,23.46,22.92,48.35,45.24,47.25-53.75-4.62-46.28-86.65,7.93-82,.29-2.09.71-4.17.95-6.27"/><path class="cls-1" d="M225,349.06c-.65-1.87,0-5.21-1.52-6.1-25.89-.31-50.44,21-52.6,47.1-.32,23.46,22.92,48.35,45.25,47.25-53.75-4.62-46.29-86.65,7.92-82,.29-2.09.71-4.17.95-6.27"/><path class="cls-1" d="M463.61,350.3c-.65-1.87,0-5.21-1.52-6.1-25.88-.31-50.43,21-52.6,47.1-.32,23.46,22.93,48.35,45.25,47.25-53.75-4.62-46.28-86.65,7.92-82,.3-2.09.71-4.17.95-6.27"/><path class="cls-1" d="M251.38,143.29c-.64-1.87,0-5.21-1.52-6.1-25.88-.31-50.43,21-52.6,47.1-.32,23.46,22.93,48.36,45.25,47.25-53.75-4.62-46.28-86.65,7.93-82,.29-2.09.71-4.17.94-6.27"/><path class="cls-1" d="M168.38,176.84c-.65-1.87,0-5.21-1.52-6.1-25.89-.31-50.44,21-52.6,47.1-.32,23.46,22.92,48.35,45.25,47.25-53.75-4.62-46.29-86.65,7.92-82,.29-2.09.71-4.17.95-6.27"/><path class="cls-1" d="M345.57,144.29c-.65-1.87,0-5.21-1.53-6.11-25.88-.3-50.43,21-52.59,47.11-.32,23.46,22.92,48.35,45.25,47.25-53.75-4.62-46.29-86.65,7.92-82,.29-2.09.71-4.18.95-6.27"/></g></svg>
