<svg id="Layer_1" data-name="Layer 1" xmlns="http://www.w3.org/2000/svg" viewBox="0 0 550 550"><defs><style>.cls-1{stroke:#000;stroke-linecap:round;stroke-linejoin:round;}</style></defs><title>Symbols</title><g id="Layer_6" data-name="Layer 6"><path class="cls-1" d="M140.21,184.45c0-2.2-.42-5.26-1.93-6.16C112.4,178,87,192.93,85.69,225.4c0,30.23,29.48,48.14,51.8,47-50.45-5.66-54.39-83.63,1.37-81.77a12.85,12.85,0,0,0,1.35-6.22"/></g><path class="cls-1" d="M227,151c0-2.19-.41-5.25-1.93-6.15-25.88-.3-51.24,14.64-52.59,47.11,0,30.23,29.48,48.14,51.8,47-50.45-5.66-54.39-83.63,1.37-81.77A12.86,12.86,0,0,0,227,151"/><path class="cls-1" d="M317.93,151.58c0-2.2-.41-5.26-1.92-6.15-25.89-.31-51.25,14.64-52.6,47.1,0,30.24,29.48,48.14,51.8,47-50.45-5.65-54.39-83.63,1.37-81.77a12.85,12.85,0,0,0,1.35-6.22"/><path class="cls-1" d="M318.67,219.39c0-2.2-.42-5.26-1.93-6.16-25.88-.3-51.24,14.64-52.6,47.11,0,30.23,29.48,48.14,51.81,47-50.45-5.66-54.39-83.63,1.37-81.77a12.85,12.85,0,0,0,1.35-6.22"/><path class="cls-1" d="M399.46,186c0-2.2-.42-5.25-1.93-6.15-25.88-.31-51.24,14.64-52.6,47.1,0,30.24,29.48,48.14,51.81,47-50.45-5.65-54.39-83.63,1.37-81.77a12.85,12.85,0,0,0,1.35-6.22"/><path class="cls-1" d="M433.44,354.51c0-2.2-.42-5.26-1.93-6.15-25.88-.31-51.24,14.64-52.59,47.1,0,30.24,29.48,48.14,51.8,47-50.45-5.65-54.39-83.63,1.37-81.77a12.85,12.85,0,0,0,1.35-6.22"/><path class="cls-1" d="M197.47,352.51c0-2.2-.41-5.26-1.92-6.15-25.89-.31-51.25,14.64-52.6,47.1,0,30.24,29.48,48.14,51.8,47-50.45-5.65-54.39-83.63,1.37-81.77a12.85,12.85,0,0,0,1.35-6.22"/></svg>