<svg id="Layer_1" data-name="Layer 1" xmlns="http://www.w3.org/2000/svg" viewBox="0 0 550 550"><defs><style>.cls-1{stroke:#000;stroke-linecap:round;stroke-linejoin:round;}</style></defs><title>Symbols</title><path class="cls-1" d="M265.74,66.19a7.62,7.62,0,0,0-3.62-5.69c-38.28,2-66.75,57.65-29.64,85.54-28-23.82-1.88-71.46,31.91-72.81a9.21,9.21,0,0,0,1.35-7"/><path class="cls-1" d="M237.58,149.78c.48-1.86,3.45-4.31,2.34-5.8-39.51-19.66-81.8,18.78-65.42,58-4.94-30.87,28.39-64.13,59-47.52,1.33-1.57,2.74-3.09,4-4.68"/><path class="cls-1" d="M174.94,203.24c1.46-1.3,5.58-1.5,5.25-3.54C152.3,158.82,78.13,187.48,92.74,240c-6-41.33,49.14-67.51,76-35.53,2.08-.41,4.18-.75,6.24-1.22"/><path class="cls-1" d="M283.83,153.67c1.49,2.42,3.85,3.82,5.61,3.43,35.73-21.69,79.15,18.64,61,55,25.57-42-28.45-90.67-68.49-64.85a6.84,6.84,0,0,0,1.91,6.44"/><path class="cls-1" d="M349.58,215.45c2.23,1,5.9,1.62,6.77-1.45,8.34-32.14,53-32,70.82-8.25,20.19,25.74-3.16,69.49-32.07,68.86,40.26,1.13,59.4-57.5,29.15-82.72-23.64-23.1-70-18-79.52,17.64,0,1.89,0,3.8,4.85,5.92"/><path class="cls-1" d="M390,270.9c-.65,2.91,0,5.49,2.16,6.65,40.13,3.93,42.08,63.3,7.06,82.58,48.73-12.33,46-94.28-5.8-94.92A6.18,6.18,0,0,0,390,270.9"/><path class="cls-1" d="M146.05,384.64c-3,0-5.3,0-6.06,2.34-7.72,49.74,65.3,78,91.55,32.37C203.48,456.49,144.15,431,152.39,387c-.95-1.34-2.44-2.34-6.34-2.34"/></svg>