<svg id="Layer_1" data-name="Layer 1" xmlns="http://www.w3.org/2000/svg" viewBox="0 0 607.18 540.88"><defs><style>.cls-1{fill:#010101;stroke:#010101;stroke-linecap:round;stroke-linejoin:round;}</style></defs><title>1</title><g id="Layer_18_copy" data-name="Layer 18 copy"><path class="cls-1" d="M184.83,412.2c5.48,7.22-7.57,14.37-11,6a19.07,19.07,0,0,1-2.36-4.23c-6.07-15.87-4.59-34.55,7.09-47,5.41-5,7.83-6.6,12.31-10.7-14.95,15.51-19.09,37.17-6.08,55.94"/><path class="cls-1" d="M129.39,337.59c-5.15-6.9,7-14.1,10.7-6.33.66.93,1.31,1.88,2,2.8,1.31,1.8,2.72,3.52,4,5.31a60.54,60.54,0,0,0,5.58,6.9,24.26,24.26,0,0,0,11.61,6.91c8.12,2.49,18.42,2.91,26.75,2.13-2,.46-4,1.09-6.1,1.41-19.74,7.42-43.78-.78-54.58-19.13"/><path class="cls-1" d="M128.75,329.93c3.83-7.64,15.7-.09,10.49,6.67-.57,1-1.13,2.09-1.7,3.14-1.92,3.47-3.64,7.06-5.8,10.4C115.5,371.64,101.84,394.9,87,417.3c14-29.05,26.56-58.89,41.8-87.37"/><path class="cls-1" d="M181.44,410.94c8.4.64,6.09,14.33-2.06,12.24l-3.19-.37c-1.78-.21-3.55-.4-5.33-.59-10.36-1.34-26.28-1.93-36.66-3.15a405.4,405.4,0,0,0-46.5-2.64c30.57-3,63.06-7.76,93.74-5.49"/></g></svg>