<svg id="Layer_1" data-name="Layer 1" xmlns="http://www.w3.org/2000/svg" viewBox="0 0 550 550"><defs><style>.cls-1{stroke:#000;stroke-linecap:round;stroke-linejoin:round;}</style></defs><title>Symbols</title><path class="cls-1" d="M157.42,416.44c-16.88-25.92,4.77-54.87,7.28-56.79-3.16,1-41,4-52.35-23.77-1.39-4.57-8.75-7.31-11.57-1.59-15.09,28.57-25.92,55.87-37.66,85.33,12.39-19,34-54.82,43.47-70.74,16.78,31.68,51.16,14.75,52.26,14.38-1,1-32.13,22.46-16.1,51.23-26.74-.72-52.79,2.33-79.63,5.13,16.69,1.66,87.73,7.54,88.79,7.65C158.61,429,161.31,420,157.42,416.44Z"/></svg>