<svg id="Layer_1" data-name="Layer 1" xmlns="http://www.w3.org/2000/svg" viewBox="0 0 550 550"><defs><style>.cls-1{stroke:#000;stroke-linecap:round;stroke-linejoin:round;}</style></defs><title>Symbols</title><path class="cls-1" d="M218.83,151.13c30.89-1.35,44.82,32,45.19,35.14.75-3.22,17.42-37.32,47.09-33,4.64,1.13,10.74-3.82,7.25-9.16C301.43,116.6,283.43,93.4,264,68.31c10,20.32,29.94,57.12,38.82,73.39-35.82-1.65-38.71,36.56-38.95,37.7-.34-1.39-3-39.08-35.93-39.91,14.21-22.66,24.83-46.64,36.06-71.18-9.91,13.54-51.08,71.72-51.73,72.58C207.44,145.8,213.76,152.67,218.83,151.13Z"/><path class="cls-1" d="M417.66,338.68c-14.4,27.37-50.23,22.59-53.13,21.33,2.41,2.27,23.46,33.85,4.77,57.3-3.32,3.44-2.11,11.2,4.26,10.88,32.3-.76,61.41-4.62,92.85-8.73-22.6-1.57-64.42-2.93-83-3.46,19.48-30.1-12.06-51.86-12.93-52.64,1.38.41,35.28,17.09,52.58-10.92,12.41,23.7,27.77,44.95,43.3,67-6.69-15.39-36.19-80.27-36.61-81.25C428,331.54,418.88,333.53,417.66,338.68Z"/></svg>