<svg id="Layer_1" data-name="Layer 1" xmlns="http://www.w3.org/2000/svg" viewBox="0 0 607.18 540.88"><defs><style>.cls-1{fill:#010101;stroke:#010101;stroke-linecap:round;stroke-linejoin:round;}</style></defs><title>1</title><g id="Layer_18" data-name="Layer 18"><path class="cls-1" d="M246.69,149.73c-9,1.34-9-13.54,0-12.48a18.24,18.24,0,0,1,4.84,0c16.84,2.28,32.52,12.55,37.83,28.77,1.8,7.14,2,10,3.48,15.93-6.43-20.55-23.45-34.58-46.16-32.18"/><path class="cls-1" d="M338,137.28c8.52-1.2,9,12.95.42,12.43-1.14.14-2.28.25-3.42.41-2.2.28-4.39.69-6.6,1a59.94,59.94,0,0,0-8.72,1.58A24.32,24.32,0,0,0,308,159.57c-6.08,5.93-11.9,15.31-15.21,23,.57-2,.74-4.71,1.45-6.68,3-20.87,22.44-37.92,43.72-38.6"/><path class="cls-1" d="M345.85,139.87c4.57,7.13-7,14-10.21,6.09l-1.82-3c-2-3.4-4.17-6.68-5.95-10.22-10.38-24.93-23.38-48.42-35.12-72.57,17.6,26.63,36.52,52.31,53.1,79.74"/><path class="cls-1" d="M250.27,147.3c-4.93,7.25-16.65-1.58-10.48-7.89l2-2.7q1.67-2.24,3.3-4.5c6.6-8.67,15.37-22.72,21.87-31.47,10.5-14.13,17.57-25.44,26.47-40.58-12.91,29-25.2,60.62-43.16,87.14"/></g><g id="Layer_18_copy_copy" data-name="Layer 18 copy copy"><path class="cls-1" d="M447,333.48c3.76-8.24,16.24-.14,10.46,6.82a18.32,18.32,0,0,1-2.61,4.07c-11.09,12.88-28.24,20.43-44.73,16-7-2.39-9.53-3.77-15.27-5.77,20.75,5.81,41.78-.81,52.15-21.16"/><path class="cls-1" d="M407.58,417.66c-3.63,7.81-15.76.48-10.65-6.42.51-1,1-2.05,1.52-3.08,1-2,1.82-4.07,2.76-6.08a59.69,59.69,0,0,0,3.43-8.18,24.38,24.38,0,0,0,.59-13.51c-1.66-8.33-6.17-17.6-10.81-24.56,1.37,1.58,2.87,3,4.13,4.71,15.89,13.86,20.06,38.91,9,57.12"/><path class="cls-1" d="M401.13,421.86c-8.54.25-7.51-13.79.9-12.4h3.58c4,.05,7.94-.13,11.9.18,26.63,4.12,53.91,1.88,80.69,4.38-32.23,1.41-64.76,7.76-97.07,7.84"/><path class="cls-1" d="M447.49,337.06c-3.42-7.69,9.74-12.15,11.76-4,.39,1,.79,2,1.19,3,.66,1.66,1.32,3.32,2,5,3.74,9.76,10.76,24.06,14.61,33.78,6.21,15.7,14.86,26.83,22.71,41.81-17.15-25.48-39.72-51.47-52.27-79.56"/></g></svg>