<svg id="Layer_1" data-name="Layer 1" xmlns="http://www.w3.org/2000/svg" viewBox="0 0 550 550"><defs><style>.cls-1{stroke:#000;stroke-linecap:round;stroke-linejoin:round;}</style></defs><title>Symbols</title><g id="Layer_6" data-name="Layer 6"><path class="cls-1" d="M140.21,184.45c0-2.2-.42-5.26-1.93-6.16C112.4,178,87,192.93,85.69,225.4c0,30.23,29.48,48.14,51.8,47-50.45-5.66-54.39-83.63,1.37-81.77a12.85,12.85,0,0,0,1.35-6.22"/></g><path class="cls-1" d="M227,151c0-2.19-.41-5.25-1.93-6.15-25.88-.3-51.24,14.64-52.59,47.11,0,30.23,29.48,48.14,51.8,47-50.45-5.66-54.39-83.63,1.37-81.77A12.86,12.86,0,0,0,227,151"/><path class="cls-1" d="M317.93,151.58c0-2.2-.41-5.26-1.92-6.15-25.89-.31-51.25,14.64-52.6,47.1,0,30.24,29.48,48.14,51.8,47-50.45-5.65-54.39-83.63,1.37-81.77a12.85,12.85,0,0,0,1.35-6.22"/><path class="cls-1" d="M318.67,219.39c0-2.2-.42-5.26-1.93-6.16-25.88-.3-51.24,14.64-52.6,47.11,0,30.23,29.48,48.14,51.81,47-50.45-5.66-54.39-83.63,1.37-81.77a12.85,12.85,0,0,0,1.35-6.22"/><path class="cls-1" d="M399.46,186c0-2.2-.42-5.25-1.93-6.15-25.88-.31-51.24,14.64-52.6,47.1,0,30.24,29.48,48.14,51.81,47-50.45-5.65-54.39-83.63,1.37-81.77a12.85,12.85,0,0,0,1.35-6.22"/><path class="cls-1" d="M433.44,354.51c0-2.2-.42-5.26-1.93-6.15-25.88-.31-51.24,14.64-52.59,47.1,0,30.24,29.48,48.14,51.8,47-50.45-5.65-54.39-83.63,1.37-81.77a12.85,12.85,0,0,0,1.35-6.22"/><path class="cls-1" d="M197.47,352.51c0-2.2-.41-5.26-1.92-6.15-25.89-.31-51.25,14.64-52.6,47.1,0,30.24,29.48,48.14,51.8,47-50.45-5.65-54.39-83.63,1.37-81.77a12.85,12.85,0,0,0,1.35-6.22"/><path class="cls-1" d="M265.74,66.19a7.62,7.62,0,0,0-3.62-5.69c-38.28,2-66.75,57.65-29.64,85.54-28-23.82-1.88-71.46,31.91-72.81a9.21,9.21,0,0,0,1.35-7"/><path class="cls-1" d="M237.58,149.78c.48-1.86,3.45-4.31,2.34-5.8-39.51-19.66-81.8,18.78-65.42,58-4.94-30.87,28.39-64.13,59-47.52,1.33-1.57,2.74-3.09,4-4.68"/><path class="cls-1" d="M174.94,203.24c1.46-1.3,5.58-1.5,5.25-3.54C152.3,158.82,78.13,187.48,92.74,240c-6-41.33,49.14-67.51,76-35.53,2.08-.41,4.18-.75,6.24-1.22"/><path class="cls-1" d="M283.83,153.67c1.49,2.42,3.85,3.82,5.61,3.43,35.73-21.69,79.15,18.64,61,55,25.57-42-28.45-90.67-68.49-64.85a6.84,6.84,0,0,0,1.91,6.44"/><path class="cls-1" d="M349.58,215.45c2.23,1,5.9,1.62,6.77-1.45,8.34-32.14,53-32,70.82-8.25,20.19,25.74-3.16,69.49-32.07,68.86,40.26,1.13,59.4-57.5,29.15-82.72-23.64-23.1-70-18-79.52,17.64,0,1.89,0,3.8,4.85,5.92"/><path class="cls-1" d="M390,270.9c-.65,2.91,0,5.49,2.16,6.65,40.13,3.93,42.08,63.3,7.06,82.58,48.73-12.33,46-94.28-5.8-94.92A6.18,6.18,0,0,0,390,270.9"/><path class="cls-1" d="M146.05,384.64c-3,0-5.3,0-6.06,2.34-7.72,49.74,65.3,78,91.55,32.37C203.48,456.49,144.15,431,152.39,387c-.95-1.34-2.44-2.34-6.34-2.34"/><path class="cls-1" d="M157.42,416.44c-16.88-25.92,4.77-54.87,7.28-56.79-3.16,1-41,4-52.35-23.77-1.39-4.57-8.75-7.31-11.57-1.59-15.09,28.57-25.92,55.87-37.66,85.33,12.39-19,34-54.82,43.47-70.74,16.78,31.68,51.16,14.75,52.26,14.38-1,1-32.13,22.46-16.1,51.23-26.74-.72-52.79,2.33-79.63,5.13,16.69,1.66,87.73,7.54,88.79,7.65C158.61,429,161.31,420,157.42,416.44Z"/><path class="cls-1" d="M218.83,151.13c30.89-1.35,44.82,32,45.19,35.14.75-3.22,17.42-37.32,47.09-33,4.64,1.13,10.74-3.82,7.25-9.16C301.43,116.6,283.43,93.4,264,68.31c10,20.32,29.94,57.12,38.82,73.39-35.82-1.65-38.71,36.56-38.95,37.7-.34-1.39-3-39.08-35.93-39.91,14.21-22.66,24.83-46.64,36.06-71.18-9.91,13.54-51.08,71.72-51.73,72.58C207.44,145.8,213.76,152.67,218.83,151.13Z"/><path class="cls-1" d="M417.66,338.68c-14.4,27.37-50.23,22.59-53.13,21.33,2.41,2.27,23.46,33.85,4.77,57.3-3.32,3.44-2.11,11.2,4.26,10.88,32.3-.76,61.41-4.62,92.85-8.73-22.6-1.57-64.42-2.93-83-3.46,19.48-30.1-12.06-51.86-12.93-52.64,1.38.41,35.28,17.09,52.58-10.92,12.41,23.7,27.77,44.95,43.3,67-6.69-15.39-36.19-80.27-36.61-81.25C428,331.54,418.88,333.53,417.66,338.68Z"/></svg>