<svg id="Layer_1" data-name="Layer 1" xmlns="http://www.w3.org/2000/svg" viewBox="0 0 550 550"><defs><style>.cls-1{stroke:#000;stroke-linecap:round;stroke-linejoin:round;}</style></defs><title>Symbols</title><g id="Layer_12" data-name="Layer 12"><path class="cls-1" d="M262.68,395.2c-13.06-.29.7,17.08.5,24.43-.31-7.85,12.66-24.9-.5-24.43"/><path class="cls-1" d="M263.68,186.34c-12.79-.71.38,15.53,0,22.55.47-7.27,13.35-23.42,0-22.55"/></g><path class="cls-1" d="M237.18,144.17c-12.79-.71.39,15.53,0,22.54.48-7.26,13.35-23.41,0-22.54"/><path class="cls-1" d="M289.26,144.17c-12.79-.71.53,14.48.13,21.49.47-7.26,13.2-22.36-.13-21.49"/><path class="cls-1" d="M265,60c-12.79-.7.39,15.53,0,22.55.47-7.26,13.35-23.42,0-22.55"/><path class="cls-1" d="M95.28,199.81c-12.63-.7.55,19.13.3,23.49.47-7.26,13-24.36-.3-23.49"/><path class="cls-1" d="M431.41,201.34c-12.79-.7.38,15.53,0,22.55.47-7.26,13.35-23.42,0-22.55"/><path class="cls-1" d="M350.31,205.75c-12.78-.7.39,15.54,0,22.55.47-7.26,13.35-23.41,0-22.55"/><path class="cls-1" d="M179.84,205.75c-12.79-.7.38,15.54,0,22.55.48-7.26,13.35-23.41,0-22.55"/><path class="cls-1" d="M171.21,348c-12.79-.71.39,15.53,0,22.55.47-7.27,13.35-23.42,0-22.55"/><path class="cls-1" d="M121.83,347.34c-12.79-.7.38,15.53,0,22.55.48-7.26,13.35-23.42,0-22.55"/><path class="cls-1" d="M146.24,387.64c-12.79-.7.39,15.53,0,22.55.47-7.26,13.35-23.41,0-22.55"/><path class="cls-1" d="M402.26,349.48c-12.78-.71.39,15.53,0,22.54.47-7.26,13.35-23.41,0-22.54"/><path class="cls-1" d="M356.88,349.8c-12.79-.7.39,15.53,0,22.55.48-7.26,13.35-23.42,0-22.55"/><path class="cls-1" d="M381.67,389.1c-12.79-.7.39,15.53,0,22.55.47-7.26,13.35-23.42,0-22.55"/><path class="cls-1" d="M225.67,416.67c-13.06-.29.71,17.08.5,24.43-.31-7.85,12.66-24.9-.5-24.43"/><path class="cls-1" d="M297.15,410.2c-13.06-.29.71,17.08.5,24.43-.31-7.84,12.67-24.9-.5-24.43"/><path class="cls-1" d="M466.34,410.2c-13.06-.29.71,17.08.5,24.43-.3-7.84,12.67-24.9-.5-24.43"/><path class="cls-1" d="M62.32,410.2c-13-.29.71,17.08.51,24.43-.31-7.84,12.66-24.9-.51-24.43"/><path class="cls-1" d="M262.68,484.74c-13.06-.28.7,17.08.5,24.43-.31-7.84,12.66-24.9-.5-24.43"/><path class="cls-1" d="M141.09,262.79c-13.06-.29.7,17.08.5,24.43-.31-7.84,12.66-24.9-.5-24.43"/><path class="cls-1" d="M381,262.79c-13.06-.29.71,17.08.5,24.43-.3-7.84,12.67-24.9-.5-24.43"/></svg>