<svg id="Layer_1" data-name="Layer 1" xmlns="http://www.w3.org/2000/svg" viewBox="0 0 607.18 540.88"><defs><style>.cls-1{fill:#010101;stroke:#010101;stroke-linecap:round;stroke-linejoin:round;}</style></defs><title>1</title><g id="Layer_12" data-name="Layer 12"><path class="cls-1" d="M291.27,390.64c-13.06-.29.71,17.08.5,24.43-.31-7.85,12.67-24.9-.5-24.43"/><path class="cls-1" d="M291.27,181.78c-12.79-.71.38,15.53,0,22.54.47-7.26,13.35-23.41,0-22.54"/></g><path class="cls-1" d="M265.77,139.6c-12.79-.7.39,15.53,0,22.55.47-7.26,13.35-23.42,0-22.55"/><path class="cls-1" d="M319.85,140.6c-12.79-.7.39,15.53,0,22.55.47-7.26,13.34-23.42,0-22.55"/><path class="cls-1" d="M293.54,57.41c-12.78-.7.39,15.53,0,22.55.47-7.26,13.35-23.42,0-22.55"/><path class="cls-1" d="M125.41,193.07c-12.79-.71.38,15.53,0,22.54.47-7.26,13.35-23.41,0-22.54"/><path class="cls-1" d="M459,193.07c-12.79-.71.38,15.53,0,22.54.48-7.26,13.35-23.41,0-22.54"/><path class="cls-1" d="M377.9,201.19c-12.78-.7.39,15.53,0,22.55.47-7.26,13.35-23.42,0-22.55"/><path class="cls-1" d="M208.43,201.19c-12.79-.7.38,15.53,0,22.55.48-7.26,13.35-23.42,0-22.55"/><path class="cls-1" d="M199.8,343.46c-12.78-.71.39,15.53,0,22.54.47-7.26,13.35-23.41,0-22.54"/><path class="cls-1" d="M150.42,342.78c-12.79-.7.39,15.53,0,22.55.48-7.26,13.35-23.42,0-22.55"/><path class="cls-1" d="M175.42,383.08c-12.79-.7.38,15.53,0,22.55.47-7.26,13.35-23.42,0-22.55"/><path class="cls-1" d="M433.86,344.91c-12.79-.7.38,15.54,0,22.55.47-7.26,13.35-23.41,0-22.55"/><path class="cls-1" d="M384.47,344.24c-12.79-.71.39,15.53,0,22.55.47-7.27,13.35-23.42,0-22.55"/><path class="cls-1" d="M409.47,384.54c-12.79-.7.38,15.53,0,22.55.47-7.26,13.35-23.42,0-22.55"/><path class="cls-1" d="M254.26,412.11c-13.06-.29.71,17.08.5,24.43-.31-7.85,12.67-24.9-.5-24.43"/><path class="cls-1" d="M325.74,405.64c-13.06-.29.71,17.08.5,24.43-.31-7.85,12.67-24.9-.5-24.43"/><path class="cls-1" d="M494.93,405.64c-13.06-.29.71,17.08.5,24.43-.3-7.85,12.67-24.9-.5-24.43"/><path class="cls-1" d="M90.92,405.64c-13.06-.29.7,17.08.5,24.43-.31-7.85,12.66-24.9-.5-24.43"/><path class="cls-1" d="M291.27,480.18c-13.06-.29.71,17.08.5,24.43-.31-7.84,12.67-24.9-.5-24.43"/><path class="cls-1" d="M169.68,258.23c-13.06-.29.71,17.08.5,24.43-.31-7.85,12.66-24.9-.5-24.43"/><path class="cls-1" d="M409.54,258.23c-13.06-.29.71,17.08.5,24.43-.3-7.85,12.67-24.9-.5-24.43"/></svg>