<svg id="Layer_1" data-name="Layer 1" xmlns="http://www.w3.org/2000/svg" viewBox="0 0 550 550"><defs><style>.cls-1{stroke:#000;stroke-linecap:round;stroke-linejoin:round;}</style></defs><title>Symbols</title><path class="cls-1" d="M466.34,410.2c-13.06-.29.71,17.08.5,24.43-.3-7.84,12.67-24.9-.5-24.43"/><path class="cls-1" d="M62.32,410.2c-13-.29.71,17.08.51,24.43-.31-7.84,12.66-24.9-.51-24.43"/><path class="cls-1" d="M403.15,221.74c-6.49-11.34-14.28,9.41-20.68,13,6.56-4.3,27.86-2,20.68-13"/><path class="cls-1" d="M264.48,254.84c13.06.49-.43-17.09-.1-24.44.18,7.85-13.07,24.69.1,24.44"/><path class="cls-1" d="M123.45,219.89c-7.35,10.81,14.71,8.7,20.77,12.87-6.75-4-14-24.17-20.77-12.87"/><path class="cls-1" d="M264.27,60.8c-13-.29.71,17.08.51,24.43-.31-7.85,12.66-24.9-.51-24.43"/><path class="cls-1" d="M326.45,491.62c13.06.29-.71-17.08-.5-24.43.31,7.84-12.67,24.9.5,24.43"/><path class="cls-1" d="M203.21,491.62c13.06.29-.71-17.08-.5-24.43.3,7.84-12.67,24.9.5,24.43"/></svg>