<svg id="Layer_1" data-name="Layer 1" xmlns="http://www.w3.org/2000/svg" viewBox="0 0 607.18 540.88"><defs><style>.cls-1{fill:#010101;stroke:#010101;stroke-linecap:round;stroke-linejoin:round;}</style></defs><title>1</title><g id="Layer_15" data-name="Layer 15"><path class="cls-1" d="M227.91,483.83c11.89,2.18,1.83-9.57.05-14.75-1.13,5-12.56,16.63-.05,14.75"/><path class="cls-1" d="M352.36,483.19c12.15,1.62,1.45-8.39-1.09-12.85-1.33,4.42-10.76,15.8,1.09,12.85"/></g><path class="cls-1" d="M292.73,58.79c-12.27-.36,0,13.42.29,19.33.83-6.43,13.36-22.48-.29-19.33"/><path class="cls-1" d="M432.76,215.09c-8.55-8.8-9.32,9.67-13.26,14.07,5.08-4,25.25-6.82,13.26-14.07"/><path class="cls-1" d="M153.82,215c-9.87,7.29,8.33,10.54,12.16,15-3.31-5.56-3.36-25.93-12.16-15"/><path class="cls-1" d="M494.93,405.64c-13.06-.29.71,17.08.5,24.43-.3-7.85,12.67-24.9-.5-24.43"/><path class="cls-1" d="M90.92,405.64c-13.06-.29.7,17.08.5,24.43-.31-7.85,12.66-24.9-.5-24.43"/><path class="cls-1" d="M293.4,251.71c12.78.7-.39-15.53,0-22.55-.47,7.26-13.35,23.41,0,22.55"/></svg>