<svg id="Layer_1" data-name="Layer 1" xmlns="http://www.w3.org/2000/svg" viewBox="0 0 607.18 540.88"><defs><style>.cls-1{fill:#010101;stroke:#010101;stroke-linecap:round;stroke-linejoin:round;}</style></defs><title>1</title><g id="Layer_5" data-name="Layer 5"><path class="cls-1" d="M290.19,177.18l-5.14,3.12c8.83,56.47-57.54,50.49-92.07,66.18-43,24-53.84,84.66-26.13,124.16-24.61-37.78-13.48-98.87,30.78-119,23.38-12.4,51.18-5.4,74.73-16.09,19.53-11.44,28.41-35.91,24.42-57.65-1.69-.84-4.46-.54-6.59-.68"/><path class="cls-1" d="M168.46,371.4c1.4-1.39,4.95-2.14,4.85-4-32-57.35-121.4-6.29-87.4,49.92-25.27-50.56,46.37-92.91,76.15-44.9,1.54,1.08,4.38-.87,6.4-1.05"/><path class="cls-1" d="M361.16,75.7c-13.11-1.21.35,13.4.89,19.59.61-6.64,11.68-21.17-.89-19.59"/><path class="cls-1" d="M400.43,414.4c2,.44,4,1,6,1.33,11.25-27.37-1.28-67-33.86-71.12-39.62-6.91-74.89,36.5-48.15,71.1-22.62-31.95,9.85-73.49,47.5-63.45,25.41,5.79,30.2,37.16,23.47,58.43,1.76,1.14,3.33,2.56,5.08,3.71"/><path class="cls-1" d="M419.56,358.61c-1.89-.73-3.94-2.09-5.7-2.34-49.46,50.65,46.14,119,77.4,57.86-30.68,51.95-110.72-6.68-67.66-50.39.94-1.94-2.9-3.46-4-5.13"/></g></svg>