<svg id="Layer_1" data-name="Layer 1" xmlns="http://www.w3.org/2000/svg" viewBox="0 0 550 550"><defs><style>.cls-1{stroke:#000;stroke-linecap:round;stroke-linejoin:round;}</style></defs><title>Symbols</title><path class="cls-1" d="M332.81,80.33c-13.06-.28.71,17.09.5,24.43-.31-7.84,12.67-24.9-.5-24.43"/><path class="cls-1" d="M265,181.06a6.72,6.72,0,0,0-6.9,5.54c8.82,56.47-53.81,44.91-93.71,64.44-43,24-52.17,84.76-21.62,124.16-24.61-37.78-14.2-90.41,25.52-114.81,23.38-12.4,51.93-9.63,75.48-20.32,23.82-12.72,31.48-32.88,27.49-54.61C270.83,183.57,269,181.06,265,181.06Z"/><path class="cls-1" d="M140.75,377.3c2.49-1,3.48-4.52,3.37-6.34-32-57.36-115-7.43-81.05,48.78C47.35,369.4,96.06,336,133.47,377A7.31,7.31,0,0,0,140.75,377.3Z"/><path class="cls-1" d="M370.86,421c2,.44,6.06,2,8.65-2.79,11.87-29.8-2.78-63.11-33.92-70.26-41.64-9.51-73.44,37.79-46.7,72.38-17.89-33.21,9.37-71,44.4-63.46,22,5.84,30.2,37.15,23.47,58.42C366.19,418.57,369.12,419.81,370.86,421Z"/><path class="cls-1" d="M409.36,350.93c-1.9-1.51-4.94-2.44-6.88-.87-23.26,21.95-25.08,49.09-15.26,68,11.75,22.62,51.55,38.54,79.25.81-49,35.66-97.31-17.63-54.25-61.34C413.17,355.59,411.68,352.62,409.36,350.93Z"/></svg>