<svg id="Layer_1" data-name="Layer 1" xmlns="http://www.w3.org/2000/svg" viewBox="0 0 607.18 540.88"><defs><style>.cls-1{fill:#010101;stroke:#010101;stroke-linecap:round;stroke-linejoin:round;}</style></defs><title>1</title><g id="Layer_11" data-name="Layer 11"><path class="cls-1" d="M467.6,232.5,461.69,230c-36.52,46.55-15.27,130.51,50,133.14-3-.57-.82-5.5-.79-5.28-30.25,15-24.75,65.11,9,72.74-1,0,.35-3.48.22-3.07-34.86-5.78-74.65,24-74.28,60.13.09.12-.05-1,0-1.26,1.68-37.61,44-60.33,77.18-56.56-27.55-8.81-38.2-52.79-7.53-66.33a4,4,0,0,0,1.71-4c-2.85-4.93-10.12-4.12-14.83-7-52.65-9.6-56-76.07-32.52-113.36.49-2-1.48-4.52-2.25-6.59"/><path class="cls-1" d="M290.82,231c-1.93.36-4.25.16-5.92.88,1.43,19.13,4.67,38.17,7.37,55.63.11-18.83,5.77-37.39,4.72-56.16-1.8-.55-4.15-.2-6.17-.35"/><path class="cls-1" d="M200.78,243.78c-.22,2-1.66,4.53-1.06,6.08,40.43,11.07,61.57,63.27,34.32,97.22,32.07-32.57,14.83-95.25-29.57-108.52-1.76.18-2.45,3.65-3.69,5.22"/><path class="cls-1" d="M213.93,82.3c-2.18-6.56,8-10.86,11.19-4.71,11.21,37-10.32,73.87-31.21,103a37.65,37.65,0,0,1,2.56-5.68c17-27.39,25.93-60.83,17.46-92.57"/></g><path class="cls-1" d="M138.75,452.93c-13.11-1.21.35,13.4.89,19.59.62-6.65,11.69-21.17-.89-19.59"/><path class="cls-1" d="M383.9,240c.23,1.95,1.67,4.53,1.06,6.07-40.43,11.08-61.57,63.28-34.32,97.23-32.07-32.57-14.83-95.26,29.57-108.53,1.76.18,2.45,3.66,3.69,5.23"/></svg>