<svg id="Layer_1" data-name="Layer 1" xmlns="http://www.w3.org/2000/svg" viewBox="0 0 550 550"><defs><style>.cls-1{stroke:#000;stroke-linecap:round;stroke-linejoin:round;}</style></defs><title>Symbols</title><g id="Layer_11" data-name="Layer 11"><path class="cls-1" d="M439,237.06c-2-1.95-3.94-3.05-5.91-2.5-36.52,46.54-23,114.54,49.45,132-28.38,9.59-26.29,54.24,2.46,65.79-38.12-.41-68.1,23.67-67.73,59.82.09.12,0-1,0-1.25,1.68-37.62,44-60.34,77.18-56.57-27.55-8.81-38.2-52.79-7.53-66.33,3.26-1.55,5.54-3,1.71-4-75.24-22.86-70.79-83.11-47.35-120.4,1-1.88.72-3.65-2.25-6.59"/><path class="cls-1" d="M174.94,250.74c-.22,2-1.66,4.53-1.05,6.07,40.42,11.08,58.81,60.89,31.56,94.84,32.07-32.57,17.58-92.86-26.81-106.14-1.77.18-2.46,3.66-3.7,5.23"/><path class="cls-1" d="M188.66,87.87c-2.19-6.57,8-10.87,11.19-4.71,11.2,37-10.33,73.87-31.21,103a36.17,36.17,0,0,1,2.56-5.68c17-27.39,25.93-60.83,17.46-92.56"/></g><path class="cls-1" d="M354,249.7c.22,2,1.66,4.53,1.06,6.07-40.43,11.08-59.43,60.77-32.18,94.72-34.74-33-17-92.75,27.43-106,1.76.18,2.45,3.66,3.69,5.23"/><path class="cls-1" d="M263.73,231c-3.42,0-5.72,1.15-6.24,3.41.86,17.52,4.46,35.88,6.52,53.13,1.19-17.78,6.3-35.41,5.93-53.13-.54-1.75-1.82-3.41-6.21-3.41"/><path class="cls-1" d="M111.27,459.64c-13.06-.29.7,17.08.5,24.43-.31-7.84,12.66-24.9-.5-24.43"/></svg>