<svg id="Layer_1" data-name="Layer 1" xmlns="http://www.w3.org/2000/svg" viewBox="0 0 550 550"><defs><style>.cls-1{stroke:#000;stroke-linecap:round;stroke-linejoin:round;}</style></defs><title>ProjectGecko</title><g id="Layer_12" data-name="Layer 12"><path class="cls-1" d="M262.68,395.2c-13.06-.29.7,17.08.5,24.43-.31-7.85,12.66-24.9-.5-24.43"/><path class="cls-1" d="M263.68,186.34c-12.79-.71.38,15.53,0,22.55.47-7.27,13.35-23.42,0-22.55"/></g><path class="cls-1" d="M237.18,144.17c-12.79-.71.39,15.53,0,22.54.48-7.26,13.35-23.41,0-22.54"/><path class="cls-1" d="M289.26,144.17c-12.79-.71.53,14.48.13,21.49.47-7.26,13.2-22.36-.13-21.49"/><path class="cls-1" d="M265,60c-12.79-.7.39,15.53,0,22.55.47-7.26,13.35-23.42,0-22.55"/><path class="cls-1" d="M95.28,199.81c-12.63-.7.55,19.13.3,23.49.47-7.26,13-24.36-.3-23.49"/><path class="cls-1" d="M431.41,201.34c-12.79-.7.38,15.53,0,22.55.47-7.26,13.35-23.42,0-22.55"/><path class="cls-1" d="M350.31,205.75c-12.78-.7.39,15.54,0,22.55.47-7.26,13.35-23.41,0-22.55"/><path class="cls-1" d="M179.84,205.75c-12.79-.7.38,15.54,0,22.55.48-7.26,13.35-23.41,0-22.55"/><path class="cls-1" d="M171.21,348c-12.79-.71.39,15.53,0,22.55.47-7.27,13.35-23.42,0-22.55"/><path class="cls-1" d="M121.83,347.34c-12.79-.7.38,15.53,0,22.55.48-7.26,13.35-23.42,0-22.55"/><path class="cls-1" d="M146.24,387.64c-12.79-.7.39,15.53,0,22.55.47-7.26,13.35-23.41,0-22.55"/><path class="cls-1" d="M402.26,349.48c-12.78-.71.39,15.53,0,22.54.47-7.26,13.35-23.41,0-22.54"/><path class="cls-1" d="M356.88,349.8c-12.79-.7.39,15.53,0,22.55.48-7.26,13.35-23.42,0-22.55"/><path class="cls-1" d="M381.67,389.1c-12.79-.7.39,15.53,0,22.55.47-7.26,13.35-23.42,0-22.55"/><path class="cls-1" d="M225.67,416.67c-13.06-.29.71,17.08.5,24.43-.31-7.85,12.66-24.9-.5-24.43"/><path class="cls-1" d="M297.15,410.2c-13.06-.29.71,17.08.5,24.43-.31-7.84,12.67-24.9-.5-24.43"/><path class="cls-1" d="M466.34,410.2c-13.06-.29.71,17.08.5,24.43-.3-7.84,12.67-24.9-.5-24.43"/><path class="cls-1" d="M62.32,410.2c-13-.29.71,17.08.51,24.43-.31-7.84,12.66-24.9-.51-24.43"/><path class="cls-1" d="M262.68,484.74c-13.06-.28.7,17.08.5,24.43-.31-7.84,12.66-24.9-.5-24.43"/><path class="cls-1" d="M141.09,262.79c-13.06-.29.7,17.08.5,24.43-.31-7.84,12.66-24.9-.5-24.43"/><path class="cls-1" d="M381,262.79c-13.06-.29.71,17.08.5,24.43-.3-7.84,12.67-24.9-.5-24.43"/><path class="cls-1" d="M466.34,410.2c-13.06-.29.71,17.08.5,24.43-.3-7.84,12.67-24.9-.5-24.43"/><path class="cls-1" d="M62.32,410.2c-13-.29.71,17.08.51,24.43-.31-7.84,12.66-24.9-.51-24.43"/><path class="cls-1" d="M403.15,221.74c-6.49-11.34-14.28,9.41-20.68,13,6.56-4.3,27.86-2,20.68-13"/><path class="cls-1" d="M264.48,254.84c10.4.39-.43-16-.1-23.44.18,7.85-13.07,23.69.1,23.44"/><path class="cls-1" d="M123.45,219.89c-7.35,10.81,14.71,8.7,20.77,12.87-6.75-4-14-24.17-20.77-12.87"/><path class="cls-1" d="M264.27,60.8c-13-.29.71,17.08.51,24.43-.31-7.85,12.66-24.9-.51-24.43"/><path class="cls-1" d="M326.45,491.62c13.06.29-.71-17.08-.5-24.43.31,7.84-12.67,24.9.5,24.43"/><path class="cls-1" d="M203.21,491.62c13.06.29-.71-17.08-.5-24.43.3,7.84-12.67,24.9.5,24.43"/><path class="cls-1" d="M332.81,80.33c-13.06-.28.71,17.09.5,24.43-.31-7.84,12.67-24.9-.5-24.43"/><path class="cls-1" d="M265,181.06c-4.1-.14-7.51,1.45-7.51,7.07,8.83,56.47-53.2,43.38-93.1,62.91-43,24-59.46,80-21.62,124.16-24.61-37.78-14.2-90.41,25.52-114.81,23.38-12.4,51.93-9.63,75.48-20.32,23.82-12.72,31.48-32.88,27.49-54.61C270.83,183.57,269,181.06,265,181.06Z"/><path class="cls-1" d="M140.75,377.3c2.49-1,3.48-4.52,3.37-6.34-32-57.36-115-7.43-81.05,48.78C47.35,369.4,96.06,336,133.47,377A7.31,7.31,0,0,0,140.75,377.3Z"/><path class="cls-1" d="M370.86,421c2,.44,6.06,2,8.65-2.79,11.87-29.8-2.78-63.11-33.92-70.26-41.64-9.51-73.44,37.79-46.7,72.38-17.89-33.21,9.37-71,44.4-63.46,22,5.84,30.2,37.15,23.47,58.42C366.19,418.57,369.12,419.81,370.86,421Z"/><path class="cls-1" d="M409.36,350.93c-1.9-1.51-4.94-2.44-6.88-.87-23.26,21.95-25.08,49.09-15.26,68,11.75,22.62,51.55,38.54,79.25.81-49,35.66-97.31-17.63-54.25-61.34C413.17,355.59,411.68,352.62,409.36,350.93Z"/><g id="Layer_11" data-name="Layer 11"><path class="cls-1" d="M439,237.06c-2-1.95-3.94-3.05-5.91-2.5-36.52,46.54-23,114.54,49.45,132-28.38,9.59-26.29,54.24,2.46,65.79-39.57-8.63-68.1,23.67-67.73,59.82.09.12,0-1,0-1.25,8.52-41.84,43.46-58.94,77.18-56.57-27.55-8.81-38.2-52.79-7.53-66.33,3.26-1.55,5.54-3,1.71-4-75.24-22.86-70.79-83.11-47.35-120.4,1-1.88.72-3.65-2.25-6.59"/><path class="cls-1" d="M174.94,250.74c-.22,2-1.66,4.53-1.05,6.07,40.42,11.08,58.81,60.89,31.56,94.84,32.07-32.57,17.58-92.86-26.81-106.14-1.77.18-2.46,3.66-3.7,5.23"/><path class="cls-1" d="M188.66,87.87c-2.19-6.57,8-10.87,11.19-4.71,11.2,37-10.33,73.87-31.21,103a36.17,36.17,0,0,1,2.56-5.68c17-27.39,25.93-60.83,17.46-92.56"/></g><path class="cls-1" d="M354,249.7c.22,2,1.66,4.53,1.06,6.07-40.43,11.08-59.43,60.77-32.18,94.72-34.74-33-17-92.75,27.43-106,1.76.18,2.45,3.66,3.69,5.23"/><path class="cls-1" d="M263.73,231c-3.42,0-7.16,1.27-7.69,4.81.86,17.52,5.91,34.48,8,51.73,1.19-17.78,7.77-34,7.4-51.73-1.71-4.81-3.29-4.81-7.68-4.81"/><path class="cls-1" d="M111.27,459.64c-13.06-.29.7,17.08.5,24.43-.31-7.84,12.66-24.9-.5-24.43"/></svg>