<svg id="Layer_1" data-name="Layer 1" xmlns="http://www.w3.org/2000/svg" viewBox="0 0 607.18 540.88"><defs><style>.cls-1{fill:#010101;stroke:#010101;stroke-linecap:round;stroke-linejoin:round;}</style></defs><title>1</title><g id="Layer_12" data-name="Layer 12"><path class="cls-1" d="M290.79,389.2c-13.06-.29.71,17.08.5,24.43-.3-7.85,12.67-24.9-.5-24.43"/><path class="cls-1" d="M290.79,180.34c-12.79-.71.39,15.53,0,22.54.48-7.26,13.35-23.41,0-22.54"/></g><path class="cls-1" d="M265.3,138.16c-12.79-.7.38,15.53,0,22.55.47-7.26,13.35-23.42,0-22.55"/><path class="cls-1" d="M319.38,139.16c-12.79-.7.38,15.53,0,22.55.47-7.26,13.35-23.42,0-22.55"/><path class="cls-1" d="M293.07,56c-12.79-.7.38,15.53,0,22.55.47-7.26,13.35-23.42,0-22.55"/><path class="cls-1" d="M124.93,191.63c-12.79-.71.39,15.53,0,22.54.47-7.26,13.34-23.41,0-22.54"/><path class="cls-1" d="M458.56,191.63c-12.79-.71.38,15.53,0,22.54.47-7.26,13.35-23.41,0-22.54"/><path class="cls-1" d="M377.43,199.75c-12.79-.7.38,15.53,0,22.55.47-7.26,13.35-23.42,0-22.55"/><path class="cls-1" d="M208,199.75c-12.79-.7.38,15.53,0,22.55.47-7.26,13.35-23.42,0-22.55"/><path class="cls-1" d="M199.33,342c-12.79-.7.38,15.54,0,22.55.47-7.26,13.35-23.41,0-22.55"/><path class="cls-1" d="M150,341.34c-12.79-.71.38,15.53,0,22.55.47-7.26,13.35-23.42,0-22.55"/><path class="cls-1" d="M174.94,381.64c-12.79-.7.39,15.53,0,22.55.47-7.26,13.35-23.42,0-22.55"/><path class="cls-1" d="M433.38,343.47c-12.79-.7.38,15.53,0,22.55.48-7.26,13.35-23.42,0-22.55"/><path class="cls-1" d="M384,342.8c-12.79-.71.38,15.53,0,22.55.47-7.27,13.35-23.42,0-22.55"/><path class="cls-1" d="M409,383.1c-12.78-.71.39,15.53,0,22.55.47-7.26,13.35-23.42,0-22.55"/><path class="cls-1" d="M253.78,410.67c-13.06-.29.71,17.08.5,24.43-.3-7.85,12.67-24.9-.5-24.43"/><path class="cls-1" d="M325.26,404.2c-13.06-.29.71,17.08.51,24.43-.31-7.85,12.66-24.9-.51-24.43"/><path class="cls-1" d="M494.46,404.2c-13.06-.29.71,17.08.5,24.43-.31-7.85,12.67-24.9-.5-24.43"/><path class="cls-1" d="M90.44,404.2c-13.06-.29.71,17.08.5,24.43-.3-7.85,12.67-24.9-.5-24.43"/><path class="cls-1" d="M290.79,478.74c-13.06-.29.71,17.08.5,24.43-.3-7.84,12.67-24.9-.5-24.43"/><path class="cls-1" d="M169.2,256.79c-13.06-.29.71,17.08.5,24.43-.3-7.85,12.67-24.9-.5-24.43"/><path class="cls-1" d="M409.07,256.79c-13.06-.29.7,17.08.5,24.43-.31-7.85,12.66-24.9-.5-24.43"/><g id="Layer_15" data-name="Layer 15"><path class="cls-1" d="M227.6,482.37c11.89,2.18,1.84-9.57.05-14.75-1.13,5-12.56,16.63-.05,14.75"/><path class="cls-1" d="M352.05,481.73c12.15,1.62,1.45-8.39-1.09-12.85-1.32,4.41-10.76,15.8,1.09,12.85"/></g><path class="cls-1" d="M292.42,57.32c-12.26-.35.05,13.43.29,19.33.84-6.42,13.36-22.48-.29-19.33"/><path class="cls-1" d="M432.45,213.63c-8.55-8.8-9.32,9.67-13.25,14.07,5.07-4,25.24-6.83,13.25-14.07"/><path class="cls-1" d="M153.51,213.55c-9.87,7.28,8.33,10.54,12.16,15-3.31-5.56-3.36-25.93-12.16-15"/><path class="cls-1" d="M494.63,404.18c-13.06-.29.7,17.08.5,24.43-.31-7.85,12.66-24.9-.5-24.43"/><path class="cls-1" d="M90.61,404.18c-13.06-.29.71,17.08.5,24.43-.31-7.85,12.66-24.9-.5-24.43"/><path class="cls-1" d="M293.09,250.24c12.79.71-.39-15.53,0-22.54-.48,7.26-13.35,23.41,0,22.54"/><g id="Layer_5" data-name="Layer 5"><path class="cls-1" d="M293.56,177l-5.14,3.12c8.83,56.48-57.54,50.49-92.07,66.18-43,23.95-53.84,84.66-26.13,124.16-24.61-37.78-13.48-98.87,30.79-119,23.37-12.4,51.17-5.4,74.72-16.09,19.53-11.44,28.41-35.91,24.42-57.65-1.69-.84-4.45-.54-6.59-.68"/><path class="cls-1" d="M171.83,371.25c1.4-1.39,4.95-2.14,4.85-4-32-57.35-121.4-6.29-87.4,49.92-25.27-50.56,46.37-92.91,76.16-44.9,1.53,1.08,4.37-.86,6.39-1.05"/><path class="cls-1" d="M364.53,75.55c-13.11-1.21.35,13.4.89,19.59C366,88.5,377.1,74,364.53,75.55"/><path class="cls-1" d="M403.8,414.25c2,.44,4,1,6,1.33,11.25-27.37-1.27-67-33.86-71.12-39.62-6.91-74.89,36.5-48.15,71.1-22.62-31.95,9.85-73.49,47.5-63.45,25.41,5.79,30.21,37.16,23.48,58.43,1.75,1.14,3.32,2.56,5.07,3.71"/><path class="cls-1" d="M422.93,358.46c-1.89-.72-3.94-2.09-5.7-2.34-49.46,50.65,46.15,119,77.4,57.86C464,465.93,383.91,407.3,427,363.59c.95-1.94-2.9-3.46-4-5.13"/></g><g id="Layer_11" data-name="Layer 11"><path class="cls-1" d="M469.48,245.16l-5.92-2.5c-36.52,46.55-15.26,130.51,50,133.13-3-.56-.82-5.49-.79-5.28-30.25,15-24.75,65.11,9,72.74-1,0,.34-3.47.21-3.06-34.86-5.78-74.64,24-74.27,60.12a8.53,8.53,0,0,0,0-1.25c1.69-37.62,44-60.33,77.18-56.56-27.54-8.81-38.2-52.8-7.52-66.34a4,4,0,0,0,1.7-4c-2.85-4.92-10.12-4.12-14.82-7-52.65-9.59-56-76.07-32.52-113.36.49-2-1.48-4.52-2.25-6.59"/><path class="cls-1" d="M292.69,243.66c-1.92.36-4.25.15-5.91.88,1.42,19.12,4.66,38.16,7.36,55.62.12-18.83,5.78-37.39,4.72-56.15-1.79-.56-4.15-.21-6.17-.35"/><path class="cls-1" d="M202.65,256.45c-.22,2-1.66,4.53-1.05,6.07,40.42,11.08,61.57,63.28,34.31,97.23,32.07-32.57,14.83-95.26-29.56-108.53-1.76.18-2.46,3.66-3.7,5.23"/><path class="cls-1" d="M215.81,95c-2.19-6.56,8-10.86,11.19-4.71,11.2,37-10.33,73.87-31.21,103a36.17,36.17,0,0,1,2.56-5.68c17-27.38,25.93-60.83,17.46-92.56"/></g><path class="cls-1" d="M140.63,465.59c-13.11-1.21.35,13.4.89,19.59.61-6.64,11.68-21.16-.89-19.59"/><path class="cls-1" d="M385.78,252.69c.22,2,1.66,4.53,1.05,6.08-40.42,11.07-61.57,63.28-34.31,97.22-32.07-32.57-14.83-95.25,29.56-108.52,1.77.18,2.46,3.65,3.7,5.22"/></svg>