<svg id="Layer_1" data-name="Layer 1" xmlns="http://www.w3.org/2000/svg" viewBox="0 0 550 550"><defs><style>.cls-1{stroke:#000;stroke-linecap:round;stroke-linejoin:round;}</style></defs><title>Symbols</title><g id="Layer_17" data-name="Layer 17"><path class="cls-1" d="M271.53,414c.16,8.11-13.21,8.43-13-.39,0-1.36,3.91-76.88,5.8-111.55,1.47,36.6,6.15,66.09,7.18,111.94"/><path class="cls-1" d="M271,196.35c1,9.67-13.9,11-12.89-.43-.06-1.68,6-87.12,6.67-126.92,2.4,42.18,3.63,85.19,6.22,127.35"/><path class="cls-1" d="M188.26,86.47c-3.39-5.56,4.26-14.15,10.83-6.33,6.34,6.43,21.51,44.88,26.42,57.73-13.91-18.13-27-32.09-37.25-51.4"/></g><path class="cls-1" d="M333.19,82.46c3.48-5.51,14.58-1.65,10.49,6.89-3,8.53-30.67,39.19-40,49.3,10.07-20.52,16.78-38.41,29.52-56.19"/></svg>