<svg id="Layer_1" data-name="Layer 1" xmlns="http://www.w3.org/2000/svg" viewBox="0 0 607.18 540.88"><defs><style>.cls-1{fill:#010101;stroke:#010101;stroke-linecap:round;stroke-linejoin:round;}</style></defs><title>1</title><g id="Layer_17" data-name="Layer 17"><path class="cls-1" d="M300.13,409.46c.15,9.36-15,7.32-12.76-1.72,0-1.36,0-2.72,0-4.08,2.91-34.54,4-69.9,5.92-104.57,1.46,36.6,8.1,73.69,6.85,110.37"/><path class="cls-1" d="M301.25,190.14c.3,9.84-15.48,7.37-12.84-2q-.07-2.52-.21-5c-1.15-39.78,3.67-79.54,4.31-119.34,2.4,42.18,6.15,84.27,8.74,126.43"/><path class="cls-1" d="M361.23,75.74c4.15-7.58,16,.34,10.62,7.09l-1.62,2.65c-.85,1.44-1.75,2.84-2.72,4.21a94.25,94.25,0,0,1-7,8.29c-2.51,2.83-5.66,7.66-8.13,10.52C345,117,340,124.66,332.89,133.3c8.91-19.43,17.25-39.22,28.34-57.56"/><path class="cls-1" d="M216.86,81.91c-3.4-5.56,4.27-12.28,9.34-8.18,6.33,6.43,7.8,16.46,11.51,24.38q8.11,19,15.47,38.25c-11-18.86-26-35.14-36.32-54.45"/></g></svg>