<svg id="Layer_1" data-name="Layer 1" xmlns="http://www.w3.org/2000/svg" viewBox="0 0 607.18 540.88"><defs><style>.cls-1{fill:#010101;stroke:#010101;stroke-linecap:round;stroke-linejoin:round;}</style></defs><title>1</title><g id="Layer_4" data-name="Layer 4"><path class="cls-1" d="M293,409c-2,.24-4.25,0-6.12.56.85,17.53,4.46,35.88,6.51,53.13,1.2-17.77,6.31-35.4,5.93-53.13-1.93-.53-4.23-.36-6.32-.56"/><path class="cls-1" d="M460.89,193.73c8.73-4.37,13.19,10.84,3.62,12.45-1.27.66-4,2.49-5.23,3.25-2.34,1.4-3.2,1.65-5.56,3-2.81,1.64-5.65,3.2-8.51,4.75-52.27,26-104.3,54.72-157.42,82.91,57.68-35.29,114-73.34,173.1-106.38"/><path class="cls-1" d="M119.46,203.68c-6.88-1.42-5.73-12.55,1.29-12.53,2.86-.06,5.5,1.44,8,2.66,55.94,34.81,111,72,167.4,106-59.08-31.43-118.59-63-176.67-96.14"/></g></svg>