<svg id="Layer_1" data-name="Layer 1" xmlns="http://www.w3.org/2000/svg" viewBox="0 0 550 550"><defs><style>.cls-1{stroke:#000;stroke-linecap:round;stroke-linejoin:round;}</style></defs><title>Symbols</title><g id="Layer_4" data-name="Layer 4"><path class="cls-1" d="M263.19,401.87c-3.41,0-5.72,1.16-6.23,3.42.85,17.52,4.46,35.87,6.51,53.13,1.2-17.78,6.31-35.41,5.93-53.13-.53-1.75-1.81-3.42-6.21-3.42"/><path class="cls-1" d="M428.53,200.63c7.72-4,13.43,7.21,5.91,11.69-1.27.66-122.12,64.16-175.24,92.35,57.68-35.28,110.24-71,169.33-104"/></g><path class="cls-1" d="M99.15,199.66c-7.72-4-13.43,7.21-5.9,11.69,1.27.66,123.37,65.13,176.49,93.32-57.69-35.28-111.5-72-170.59-105"/></svg>