<svg id="Layer_1" data-name="Layer 1" xmlns="http://www.w3.org/2000/svg" viewBox="0 0 550 550"><defs><style>.cls-1{stroke:#000;stroke-linecap:round;stroke-linejoin:round;}</style></defs><title>DragonFly</title><path class="cls-1" d="M133,223.25c0,3.21,2.35,5.1,3.76,6.43,73.56-13.52,147.73,5.35,176.6,100.43C298.27,234.25,213.91,204.17,135.61,217,133.68,219.23,133,220.53,133,223.25Z"/><path class="cls-1" d="M309.19,331.41c0-3.21-2.35-5.09-3.77-6.43-73.56,13.53-148.82-3.6-176.59-100.43,15.1,95.87,99.45,126,177.76,113.14C308.52,335.44,309.22,334.13,309.19,331.41Z"/><path class="cls-1" d="M397.84,228.61c-2.76-1.63-5.58-.57-7.45,0-25.73,70.22-79.67,124.51-176.23,101.06,90.23,35.71,159-21.66,187.77-95.61C401,231.23,400.2,230,397.84,228.61Z"/><path class="cls-1" d="M215.16,325.39c2.77,1.63,5.58.57,7.45,0,25.73-70.22,78.73-126.35,176.23-101.06C308.61,188.64,239.83,246,211.07,320,212,322.77,212.8,324,215.16,325.39Z"/><g id="Layer_17" data-name="Layer 17"><path class="cls-1" d="M271.53,414c.16,8.11-13.21,8.43-13-.39,0-1.36,3.91-76.88,5.8-111.55,1.47,36.6,6.15,66.09,7.18,111.94"/><path class="cls-1" d="M271,196.35c1,9.67-13.9,11-12.89-.43-.06-1.68,6-87.12,6.67-126.92,2.4,42.18,3.63,85.19,6.22,127.35"/><path class="cls-1" d="M188.26,86.47c-3.39-5.56,4.26-14.15,10.83-6.33,6.34,6.43,21.51,44.88,26.42,57.73-13.91-18.13-27-32.09-37.25-51.4"/></g><path class="cls-1" d="M333.19,82.46c3.48-5.51,14.58-1.65,10.49,6.89-3,8.53-30.67,39.19-40,49.3,10.07-20.52,16.78-38.41,29.52-56.19"/><g id="Layer_4" data-name="Layer 4"><path class="cls-1" d="M265,410.07c-3.41,0-5.72,1.15-6.23,3.41.85,17.52,4.46,35.88,6.51,53.13,1.2-17.78,6.3-35.41,5.93-53.13-.53-1.75-1.81-3.41-6.21-3.41"/><path class="cls-1" d="M428.53,200.63c7.72-4,13.43,7.21,5.91,11.69-1.27.66-122.12,64.16-175.24,92.35,57.68-35.28,110.24-71,169.33-104"/></g><path class="cls-1" d="M99.15,199.66c-7.72-4-13.43,7.21-5.9,11.69,1.27.66,123.37,65.13,176.49,93.32-57.69-35.28-111.5-72-170.59-105"/></svg>