<svg id="Layer_1" data-name="Layer 1" xmlns="http://www.w3.org/2000/svg" viewBox="0 0 607.18 540.88"><defs><style>.cls-1{fill:#010101;stroke:#010101;stroke-linecap:round;stroke-linejoin:round;}</style></defs><title>1</title><g id="Layer_17" data-name="Layer 17"><path class="cls-1" d="M300.13,409.46c.15,9.36-15,7.32-12.76-1.72,0-1.36,0-2.72,0-4.08,2.91-34.54,4-69.9,5.92-104.57,1.46,36.6,8.1,73.69,6.85,110.37"/><path class="cls-1" d="M301.25,190.14c.3,9.84-15.48,7.37-12.84-2q-.07-2.52-.21-5c-1.15-39.78,3.67-79.54,4.31-119.34,2.4,42.18,6.15,84.27,8.74,126.43"/><path class="cls-1" d="M361.23,75.74c4.15-7.58,16,.34,10.62,7.09l-1.62,2.65c-.85,1.44-1.75,2.84-2.72,4.21a94.25,94.25,0,0,1-7,8.29c-2.51,2.83-5.66,7.66-8.13,10.52C345,117,340,124.66,332.89,133.3c8.91-19.43,17.25-39.22,28.34-57.56"/><path class="cls-1" d="M216.86,81.91c-3.4-5.56,4.27-12.28,9.34-8.18,6.33,6.43,7.8,16.46,11.51,24.38q8.11,19,15.47,38.25c-11-18.86-26-35.14-36.32-54.45"/></g><g id="Layer_4" data-name="Layer 4"><path class="cls-1" d="M293,409c-2,.24-4.25,0-6.12.56.85,17.53,4.46,35.88,6.51,53.13,1.2-17.77,6.31-35.4,5.93-53.13-1.93-.53-4.23-.36-6.32-.56"/><path class="cls-1" d="M463.89,196.73c8.73-4.37,13.19,10.84,3.62,12.45-1.27.66-4,2.49-5.23,3.25-2.34,1.4-3.2,1.65-5.56,3-2.81,1.64-5.65,3.2-8.51,4.75-53,26.36-105.14,55.16-157.42,82.91,57.68-35.29,114-73.34,173.1-106.38"/><path class="cls-1" d="M119.46,207.68c-6.88-1.42-5.73-12.55,1.29-12.53,2.86-.06,5.5,1.44,8,2.66,55.94,34.81,111,72,167.4,106-59.08-31.43-118.59-63-176.67-96.14"/></g><g id="Layer_7" data-name="Layer 7"><path class="cls-1" d="M243,329.85c2.05-.59,5.24,0,6.52-1.32,14-80.11,104.12-136.23,182-106.82-76.58-34.3-180.4,19.7-194.61,104.78.33,2.09,4.2,2.29,6.08,3.36"/><path class="cls-1" d="M430.3,224.8c-2.15-.2-4.3-.45-6.45-.62-21.74,72.69-99.59,136.67-177,110.05,76.78,31.06,165.59-29.61,188.93-105.44-1.24-1.51-3.63-2.76-5.45-4"/></g><g id="Layer_7_copy" data-name="Layer 7 copy"><path class="cls-1" d="M339.11,330.88c-1.51-1.5-2.53-4.59-4.32-5.05C258,352.52,165.12,301,153,218.64c7.23,83.6,104.87,148.11,186.13,119.2,1.67-1.31,0-4.79,0-7"/><path class="cls-1" d="M163,213.92c.78,2,1.52,4.05,2.33,6.05,74.77-12.84,166.69,28.45,177.26,109.65C336.32,247.05,242.5,194.46,164.2,207.27c-.8,1.77-.86,4.47-1.16,6.65"/></g></svg>